<svg width="32" height="32" viewBox="0 0 32 32" fill="none" xmlns="http://www.w3.org/2000/svg">
<path d="M9.25 8C9.1125 8 9 8.1125 9 8.25V9.75C9 9.8875 9.1125 10 9.25 10H21.25C21.3875 10 21.5 9.8875 21.5 9.75V8.25C21.5 8.1125 21.3875 8 21.25 8H9.25ZM15.25 14.25V12.75C15.25 12.6125 15.1375 12.5 15 12.5H9.25C9.1125 12.5 9 12.6125 9 12.75V14.25C9 14.3875 9.1125 14.5 9.25 14.5H15C15.1375 14.5 15.25 14.3875 15.25 14.25ZM13.75 26.625H6.5V4.625H24V15.375C24 15.5125 24.1125 15.625 24.25 15.625H26C26.1375 15.625 26.25 15.5125 26.25 15.375V3.375C26.25 2.82187 25.8031 2.375 25.25 2.375H5.25C4.69687 2.375 4.25 2.82187 4.25 3.375V27.875C4.25 28.4281 4.69687 28.875 5.25 28.875H13.75C13.8875 28.875 14 28.7625 14 28.625V26.875C14 26.7375 13.8875 26.625 13.75 26.625ZM17.0031 23.0125C17.0594 21.9344 17.5094 20.925 18.2781 20.1562C19.0969 19.3375 20.2156 18.875 21.375 18.875C22.5438 18.875 23.6437 19.3312 24.4719 20.1562C24.5719 20.2563 24.6687 20.3625 24.7594 20.4719L24.0375 21.0312C24.0003 21.06 23.9719 21.0988 23.9557 21.1429C23.9395 21.1871 23.9361 21.235 23.9459 21.281C23.9557 21.327 23.9783 21.3694 24.0111 21.4031C24.0439 21.4369 24.0855 21.4607 24.1313 21.4719L27.0469 22.175C27.2031 22.2125 27.3531 22.0938 27.3563 21.9344L27.375 18.9531C27.3755 18.9062 27.3627 18.86 27.3381 18.82C27.3135 18.78 27.2782 18.7477 27.2361 18.7268C27.194 18.7059 27.1469 18.6973 27.1002 18.702C27.0535 18.7066 27.009 18.7244 26.9719 18.7531L26.3375 19.2469C25.1687 17.8 23.3781 16.875 21.375 16.875C17.9406 16.875 15.1375 19.5906 15 22.9906C14.9937 23.1313 15.1094 23.25 15.25 23.25H16.7531C16.8875 23.25 16.9969 23.1469 17.0031 23.0125ZM27.5 23.25H25.9969C25.8625 23.25 25.7531 23.3531 25.7469 23.4875C25.6906 24.5656 25.2406 25.575 24.4719 26.3438C23.6531 27.1625 22.5344 27.625 21.375 27.625C20.2063 27.625 19.1063 27.1688 18.2781 26.3438C18.1781 26.2437 18.0813 26.1375 17.9906 26.0281L18.7125 25.4688C18.7497 25.44 18.7781 25.4012 18.7943 25.3571C18.8105 25.3129 18.8139 25.265 18.8041 25.219C18.7943 25.173 18.7717 25.1306 18.7389 25.0969C18.7061 25.0631 18.6645 25.0393 18.6187 25.0281L15.7031 24.325C15.5469 24.2875 15.3969 24.4062 15.3938 24.5656L15.375 27.5469C15.3746 27.5938 15.3873 27.64 15.4119 27.68C15.4365 27.72 15.4718 27.7523 15.5139 27.7732C15.556 27.7941 15.6031 27.8027 15.6498 27.798C15.6965 27.7934 15.741 27.7756 15.7781 27.7469L16.4125 27.2531C17.5813 28.7 19.3719 29.625 21.375 29.625C24.8094 29.625 27.6125 26.9094 27.75 23.5094C27.7563 23.3687 27.6406 23.25 27.5 23.25Z" fill="#F4F4F4" fill-opacity="0.956863"/>
</svg>
