<svg width="20" height="20" viewBox="0 0 20 20" fill="none" xmlns="http://www.w3.org/2000/svg">
<path d="M19.7008 12.4183C18.3648 17.7783 12.9342 21.0366 7.58186 19.7004C2.22171 18.3643 -1.03657 12.934 0.299599 7.58171C1.63569 2.22171 7.05835 -1.03657 12.4185 0.299599C17.7708 1.62788 21.037 7.05819 19.7008 12.4183Z" fill="url(#paint0_linear_326_826)"/>
<path d="M14.7614 8.75391C14.9567 7.42578 13.9489 6.70703 12.5582 6.23047L13.0114 4.42578L11.9176 4.15234L11.4801 5.91016C11.191 5.83984 10.8942 5.76953 10.5973 5.70703L11.0348 3.94141L9.94104 3.66797L9.49573 5.46484C9.25354 5.41016 9.01916 5.35547 8.7926 5.30078V5.29297L7.27698 4.91797L6.98791 6.08984C6.98791 6.08984 7.80041 6.27734 7.78479 6.28516C8.2301 6.39453 8.30823 6.69141 8.2926 6.92578L7.77698 8.98047C7.80823 8.98828 7.84729 8.99609 7.89416 9.01953C7.8551 9.01172 7.81604 9.00391 7.77698 8.98828L7.05823 11.8633C7.00354 11.9961 6.86291 12.1992 6.55823 12.1211C6.56604 12.1367 5.76135 11.9258 5.76135 11.9258L5.21448 13.1836L6.64416 13.543C6.90979 13.6133 7.1676 13.6758 7.42541 13.7461L6.97229 15.5664L8.06604 15.8398L8.51916 14.0352C8.81604 14.1133 9.11292 14.1914 9.39417 14.2617L8.94885 16.0586L10.0426 16.332L10.4957 14.5117C12.3707 14.8633 13.777 14.7227 14.3629 13.0273C14.8395 11.668 14.3395 10.8789 13.3551 10.3633C14.0817 10.1992 14.6207 9.72266 14.7614 8.75391ZM12.2535 12.2695C11.9176 13.6289 9.62073 12.8945 8.87854 12.707L9.4801 10.293C10.2223 10.4805 12.6129 10.8477 12.2535 12.2695ZM12.5973 8.73047C12.2848 9.97266 10.3785 9.33984 9.76135 9.18359L10.3082 6.99609C10.9254 7.15234 12.9176 7.44141 12.5973 8.73047Z" fill="white"/>
<defs>
<linearGradient id="paint0_linear_326_826" x1="999.459" y1="-0.48" x2="999.459" y2="1999.8" gradientUnits="userSpaceOnUse">
<stop stop-color="#F9AA4B"/>
<stop offset="1" stop-color="#F7931A"/>
</linearGradient>
</defs>
</svg>
