<svg width="32" height="32" viewBox="0 0 32 32" fill="none" xmlns="http://www.w3.org/2000/svg">
<path d="M26 21V20C26 19.7348 26.1054 19.4804 26.2929 19.2929C26.4804 19.1054 26.7348 19 27 19C27.2652 19 27.5196 19.1054 27.7071 19.2929C27.8947 19.4804 28 19.7348 28 20V30H30V20C29.9992 19.2046 29.6829 18.442 29.1205 17.8796C28.558 17.3171 27.7954 17.0008 27 17C26.4834 17.0031 25.9766 17.1413 25.53 17.401C25.1252 16.7458 24.4805 16.2745 23.7333 16.0877C22.9861 15.9009 22.1955 16.0133 21.53 16.401C21.2605 15.9732 20.8873 15.6204 20.445 15.3755C20.0027 15.1306 19.5056 15.0014 19 15C18.6586 15.0043 18.3204 15.0669 18 15.185V10C18 9.20435 17.6839 8.44129 17.1213 7.87868C16.5587 7.31607 15.7957 7 15 7C14.2044 7 13.4413 7.31607 12.8787 7.87868C12.3161 8.44129 12 9.20435 12 10V21.105L9.76501 19.575C9.15434 19.1288 8.39761 18.9308 7.64643 19.0188C6.89524 19.1069 6.20507 19.4755 5.71417 20.0509C5.22326 20.6263 4.96789 21.3659 4.9992 22.1216C5.03051 22.8773 5.34619 23.5932 5.88301 24.126L12.323 30L13.67 28.522L7.29201 22.704C7.10556 22.5171 7.00059 22.264 7.00001 22C7.00001 21.8143 7.05172 21.6322 7.14936 21.4743C7.24699 21.3163 7.38669 21.1886 7.55279 21.1056C7.7189 21.0225 7.90485 20.9874 8.08981 21.004C8.27477 21.0207 8.45144 21.0886 8.60001 21.2L14 24.895V10C14 9.73478 14.1054 9.48043 14.2929 9.29289C14.4804 9.10536 14.7348 9 15 9C15.2652 9 15.5196 9.10536 15.7071 9.29289C15.8946 9.48043 16 9.73478 16 10V21H18V18C18 17.7348 18.1054 17.4804 18.2929 17.2929C18.4804 17.1054 18.7348 17 19 17C19.2652 17 19.5196 17.1054 19.7071 17.2929C19.8947 17.4804 20 17.7348 20 18V21H22V19C22 18.7348 22.1054 18.4804 22.2929 18.2929C22.4804 18.1054 22.7348 18 23 18C23.2652 18 23.5196 18.1054 23.7071 18.2929C23.8947 18.4804 24 18.7348 24 19V21H26Z" fill="#F4F4F4" fill-opacity="0.956863"/>
<path d="M28 12H22V10H28V4H4V10H8V12H4C3.46957 12 2.96086 11.7893 2.58579 11.4142C2.21071 11.0391 2 10.5304 2 10V4C2 3.46957 2.21071 2.96086 2.58579 2.58579C2.96086 2.21071 3.46957 2 4 2H28C28.5304 2 29.0391 2.21071 29.4142 2.58579C29.7893 2.96086 30 3.46957 30 4V10C30 10.5304 29.7893 11.0391 29.4142 11.4142C29.0391 11.7893 28.5304 12 28 12Z" fill="#F4F4F4" fill-opacity="0.956863"/>
</svg>
