<svg width="335" height="242" viewBox="0 0 335 242" fill="none" xmlns="http://www.w3.org/2000/svg">
<g clip-path="url(#clip0_495_4441)">
<path d="M335 219.328H0V219.492H335V219.328Z" fill="#9A9A9A"/>
<path d="M301.438 230.115H279.244V230.279H301.438V230.115Z" fill="#9A9A9A"/>
<path d="M221.917 231.93H216.094V232.094H221.917V231.93Z" fill="#9A9A9A"/>
<path d="M278.571 223.889H265.716V224.053H278.571V223.889Z" fill="#9A9A9A"/>
<path d="M64.0835 225.02H35.1431V225.184H64.0835V225.02Z" fill="#9A9A9A"/>
<path d="M74.2947 225.02H70.053V225.184H74.2947V225.02Z" fill="#9A9A9A"/>
<path d="M150.844 227.844H88.0824V228.008H150.844V227.844Z" fill="#9A9A9A"/>
<path d="M319.035 189.463H34.0201C29.381 189.463 25.5971 187.736 25.5971 185.637V3.82605C25.5971 1.7187 29.381 0 34.0201 0H319.035C323.683 0 327.458 1.72734 327.458 3.82605V185.637C327.458 187.744 323.683 189.463 319.035 189.463ZM34.0201 0.172731C29.5796 0.172731 25.9686 1.8137 25.9686 3.82605V185.637C25.9686 187.649 29.5796 189.29 34.0201 189.29H319.035C323.476 189.29 327.095 187.649 327.095 185.637V3.82605C327.095 1.8137 323.476 0.172731 319.035 0.172731H34.0201Z" fill="#9A9A9A"/>
<path d="M211.567 83.2398C226.124 59.843 228.102 36.7917 217.502 29.3296C206.902 21.8675 185.866 31.4974 168.735 53.0891L119.735 114.867L169.936 150.209L211.567 83.2398Z" fill="#B348F9"/>
<path opacity="0.1" d="M205.865 79.207L163.25 145.433L158.066 135.475L200.397 75.0182C212.362 57.9348 219.066 42.3197 219.1 33.6225C219.101 33.4563 219.16 33.2955 219.267 33.1683C219.374 33.0411 219.522 32.9556 219.686 32.9267C219.85 32.8979 220.018 32.9276 220.162 33.0106C220.306 33.0936 220.417 33.2246 220.474 33.3807C223.428 42.0865 218.202 59.9904 205.865 79.207Z" fill="white"/>
<path d="M169.938 150.144C176.715 140.523 170.972 124.813 157.111 115.056C143.251 105.299 126.521 105.189 119.745 114.811C112.968 124.433 118.711 140.142 132.572 149.899C146.432 159.656 163.162 159.766 169.938 150.144Z" fill="#B348F9"/>
<path opacity="0.5" d="M169.938 150.144C176.715 140.523 170.972 124.813 157.111 115.056C143.251 105.299 126.521 105.189 119.745 114.811C112.968 124.433 118.711 140.142 132.572 149.899C146.432 159.656 163.162 159.766 169.938 150.144Z" fill="white"/>
<path opacity="0.1" d="M164.727 104.15C153.712 96.3773 141.22 94.1835 133.247 97.8023L120.815 113.469C128.167 105.239 143.933 105.8 157.099 115.076C170.264 124.351 176.104 138.999 170.843 148.698L181.279 131.926C182.169 123.16 175.863 111.984 164.727 104.15Z" fill="black"/>
<path opacity="0.2" d="M182.368 53.6602C179.309 58.4967 177.02 67.548 186.091 73.9305C195.162 80.313 202.902 75.105 206.427 70.6053L182.368 53.6602Z" fill="black"/>
<path d="M208.569 64.9918C207.533 73.6285 197.546 79.9332 187.059 72.5575C176.571 65.1818 179.137 53.6518 186.929 49.7567C191.724 47.3557 197.831 48.3834 202.012 51.3285C206.194 54.2736 209.217 59.6716 208.569 64.9918Z" fill="white"/>
<path d="M188.484 70.5265C184.398 67.6591 182.316 63.9108 182.609 59.9811C182.749 58.2917 183.321 56.6666 184.271 55.2627C185.222 53.8588 186.518 52.7235 188.035 51.9662C191.68 50.1439 196.838 50.7139 200.587 53.3481C204.336 55.9823 206.634 60.6547 206.116 64.6967C205.908 66.3733 205.273 67.9684 204.271 69.3294C203.27 70.6904 201.936 71.7716 200.397 72.4697C196.795 74.1021 192.562 73.4111 188.484 70.5265Z" fill="#B348F9"/>
<path opacity="0.3" d="M188.432 70.4659C184.346 67.5985 182.264 63.8502 182.558 59.9205C182.696 58.2309 183.268 56.6055 184.218 55.2014C185.169 53.7974 186.465 52.6623 187.983 51.9057C191.629 50.0833 196.786 50.6534 200.535 53.2876C204.285 55.9217 206.583 60.5856 206.064 64.6362C205.856 66.3128 205.221 67.9079 204.219 69.2689C203.218 70.6298 201.884 71.7111 200.345 72.4092C196.743 74.0415 192.51 73.3419 188.432 70.4659Z" fill="black"/>
<path d="M188.484 70.5274C184.398 67.66 182.238 64.0154 182.437 60.2757C182.507 58.6877 183.015 57.1499 183.903 55.8318C184.792 54.5136 186.027 53.4662 187.473 52.8049C190.981 51.1812 196.043 51.8895 199.792 54.5323C203.542 57.1751 205.909 61.6921 205.563 65.5354C205.428 67.1202 204.859 68.637 203.917 69.9187C202.975 71.2003 201.697 72.197 200.224 72.7989C196.717 74.2066 192.562 73.4121 188.484 70.5274Z" fill="#430B68"/>
<path opacity="0.2" d="M186.195 72.2539C182.117 69.3778 179.957 65.7332 180.147 61.9935C180.218 60.4055 180.725 58.8677 181.614 57.5496C182.503 56.2314 183.738 55.184 185.184 54.5227C188.691 52.9077 193.754 53.6591 197.494 56.2501C201.235 58.8411 203.611 63.4099 203.265 67.2532C203.131 68.838 202.561 70.3548 201.619 71.6365C200.677 72.9181 199.399 73.9148 197.926 74.5167C194.436 75.9331 190.315 75.1385 186.195 72.2539Z" fill="white"/>
<path opacity="0.3" d="M202.583 57.1835L183.724 65.492C182.803 63.9238 182.345 62.1273 182.402 60.3099C182.435 59.4482 182.604 58.597 182.903 57.788L195.075 52.416C196.753 52.8456 198.339 53.5741 199.758 54.5665C200.816 55.3043 201.766 56.185 202.583 57.1835Z" fill="white"/>
<path opacity="0.3" d="M205.295 62.5467L188.017 70.1643C186.976 69.4128 186.025 68.5433 185.184 67.5733L204.017 59.2734C204.591 60.3009 205.021 61.4023 205.295 62.5467Z" fill="white"/>
<path opacity="0.1" d="M224.163 47.6222C223.584 43.0016 220.033 37.6641 214.418 33.7085C208.803 29.7529 202.574 28.2156 198.004 29.2261C205.779 26.0737 212.69 25.9442 217.476 29.3297C222.262 32.7153 224.526 39.2792 224.163 47.6222Z" fill="black"/>
<path opacity="0.5" d="M157.096 131.305C159.206 128.31 157.494 123.473 153.273 120.502C149.052 117.531 143.92 117.55 141.81 120.545C139.701 123.541 141.413 128.377 145.634 131.349C149.855 134.32 154.987 134.301 157.096 131.305Z" fill="#B348F9"/>
<path opacity="0.5" d="M137.16 128.497C135.052 131.494 129.921 131.511 125.696 128.54C121.472 125.569 119.761 120.767 121.878 117.736C123.994 114.704 129.117 114.713 133.342 117.684C137.566 120.655 139.268 125.5 137.16 128.497Z" fill="#B348F9"/>
<path opacity="0.5" d="M166.481 149.129C164.364 152.126 159.233 152.152 155.008 149.181C150.784 146.21 149.082 141.364 151.19 138.367C153.298 135.371 158.438 135.353 162.654 138.367C166.869 141.382 168.588 146.132 166.481 149.129Z" fill="#B348F9"/>
<path opacity="0.5" d="M146.542 146.305C144.425 149.302 139.294 149.327 135.078 146.356C130.862 143.385 129.143 138.583 131.251 135.543C133.359 132.503 138.499 132.529 142.715 135.5C146.931 138.471 148.65 143.308 146.542 146.305Z" fill="#B348F9"/>
<path opacity="0.5" d="M157.099 131.279C156.878 131.596 156.62 131.886 156.33 132.142C157.496 129.154 155.725 125.017 151.959 122.357C148.192 119.697 143.691 119.438 141.272 121.545C141.412 121.185 141.595 120.843 141.816 120.526C143.924 117.538 149.056 117.512 153.28 120.483C157.505 123.454 159.215 128.325 157.099 131.279Z" fill="#B348F9"/>
<path opacity="0.5" d="M137.16 128.497C136.934 128.813 136.673 129.103 136.383 129.361C137.558 126.364 135.795 122.227 132.063 119.567C128.331 116.907 123.796 116.648 121.368 118.755C121.513 118.4 121.696 118.061 121.912 117.744C124.029 114.748 129.16 114.722 133.376 117.693C137.592 120.664 139.268 125.492 137.16 128.497Z" fill="#B348F9"/>
<path opacity="0.5" d="M166.481 149.139C166.252 149.453 165.991 149.742 165.703 150.003C166.878 147.006 165.107 142.86 161.384 140.209C157.66 137.557 153.116 137.289 150.689 139.397C150.83 139.04 151.013 138.701 151.233 138.386C153.349 135.381 158.472 135.364 162.697 138.335C166.921 141.306 168.588 146.133 166.481 149.139Z" fill="#B348F9"/>
<path opacity="0.5" d="M146.542 146.305C146.321 146.625 146.059 146.915 145.764 147.169C146.939 144.181 145.168 140.035 141.402 137.384C137.635 134.732 133.126 134.464 130.707 136.572C130.845 136.211 131.028 135.868 131.251 135.553C133.368 132.556 138.499 132.538 142.715 135.509C146.931 138.48 148.65 143.308 146.542 146.305Z" fill="#B348F9"/>
<path d="M152.987 75.8824C152.987 75.8824 143.942 87.611 136.063 97.7159C134.946 99.1219 133.483 100.214 131.817 100.884C130.152 101.555 128.34 101.782 126.56 101.542C119.649 100.678 108.418 105.567 108.418 105.567C108.418 105.567 129.662 70.7349 152.987 75.8824Z" fill="#9218E1"/>
<path opacity="0.3" d="M152.987 75.8824C152.987 75.8824 143.95 87.611 136.072 97.7159C134.955 99.1219 133.492 100.214 131.826 100.884C130.16 101.555 128.349 101.782 126.569 101.542C119.658 100.678 108.427 105.567 108.427 105.567C108.427 105.567 129.662 70.7349 152.987 75.8824Z" fill="black"/>
<path d="M195.404 105.748C195.404 105.748 187.404 118.211 180.545 129.067C179.597 130.594 179.063 132.341 178.995 134.137C178.927 135.933 179.327 137.716 180.156 139.31C183.275 145.503 182.463 157.724 182.463 157.724C182.463 157.724 208.112 125.967 195.404 105.748Z" fill="#9218E1"/>
<path opacity="0.3" d="M195.404 105.748C195.404 105.748 187.404 118.211 180.545 129.067C179.597 130.594 179.063 132.341 178.995 134.137C178.927 135.933 179.327 137.716 180.156 139.31C183.275 145.503 182.463 157.724 182.463 157.724C182.463 157.724 208.112 125.967 195.404 105.748Z" fill="black"/>
<path d="M224.629 195.362C232.966 174.893 196.838 169.089 182.497 174.228C168.157 179.366 153.583 183.184 153.004 169.486C152.425 155.788 163.474 147.29 158.187 144.129C155.276 142.401 154.438 145.493 153.004 149.993C148.589 163.812 123.632 167.111 135.113 187.131C146.594 207.151 140.495 202.806 121.144 210.838C101.792 218.871 111.744 242 130.465 242H243.116C294.734 242 245.864 143.23 224.629 195.362Z" fill="#B348F9"/>
<path opacity="0.6" d="M224.629 195.362C232.966 174.893 196.838 169.089 182.497 174.228C168.157 179.366 153.583 183.184 153.004 169.486C152.425 155.788 163.474 147.29 158.187 144.129C155.276 142.401 154.438 145.493 153.004 149.993C148.589 163.812 123.632 167.111 135.113 187.131C146.594 207.151 140.495 202.806 121.144 210.838C101.792 218.871 111.744 242 130.465 242H243.116C294.734 242 245.864 143.23 224.629 195.362Z" fill="white"/>
<path d="M129.515 124.015C128.02 118.833 119.9 125.371 111.891 133.29C103.883 141.21 99.9523 159.347 92.2118 168.761C84.4713 178.175 62.3125 186.769 70.9773 200.968C83.7543 221.903 54.3906 242.001 89.1709 242.001H160.502C173.547 242.001 187.698 226.057 167.414 215.227C147.129 204.396 116.634 229.624 108.427 205.554C104.358 193.583 119.122 199.076 112.289 179.471C105.455 159.866 105.896 154.537 109.386 145.788C117.878 124.516 131.795 131.926 129.515 124.015Z" fill="#B348F9"/>
<path opacity="0.6" d="M129.515 124.015C128.02 118.833 119.9 125.371 111.891 133.29C103.883 141.21 99.9523 159.347 92.2118 168.761C84.4713 178.175 62.3125 186.769 70.9773 200.968C83.7543 221.903 54.3906 242.001 89.1709 242.001H160.502C173.547 242.001 187.698 226.057 167.414 215.227C147.129 204.396 116.634 229.624 108.427 205.554C104.358 193.583 119.122 199.076 112.289 179.471C105.455 159.866 105.896 154.537 109.386 145.788C117.878 124.516 131.795 131.926 129.515 124.015Z" fill="white"/>
<path d="M144.305 126.415C146.032 123.185 152.14 125.129 152.01 129.352C151.881 133.575 136.158 139.12 139.052 153.707C141.946 168.295 170.031 169.357 176.623 183.936C183.214 198.515 157.721 200.648 165.263 209.785C172.804 218.923 196.363 197.936 213.105 203.334C229.847 208.732 246.563 242 215.869 242H121.325C100.764 242 85.7413 199.542 105.507 182.079C125.273 164.616 109.326 170.273 116.738 159.079C124.15 147.886 137.514 138.8 144.305 126.415Z" fill="#B348F9"/>
<path opacity="0.8" d="M144.305 126.415C146.032 123.185 152.14 125.129 152.01 129.352C151.881 133.575 136.158 139.12 139.052 153.707C141.946 168.295 170.031 169.357 176.623 183.936C183.214 198.515 157.721 200.648 165.263 209.785C172.804 218.923 196.363 197.936 213.105 203.334C229.847 208.732 246.563 242 215.869 242H121.325C100.764 242 85.7413 199.542 105.507 182.079C125.273 164.616 109.326 170.273 116.738 159.079C124.15 147.886 137.514 138.8 144.305 126.415Z" fill="white"/>
</g>
<defs>
<clipPath id="clip0_495_4441">
<rect width="335" height="242" fill="white"/>
</clipPath>
</defs>
</svg>
