<svg width="20" height="21" viewBox="0 0 20 21" fill="none" xmlns="http://www.w3.org/2000/svg">
<path d="M10 20.5C15.5228 20.5 20 16.0228 20 10.5C20 4.97715 15.5228 0.5 10 0.5C4.47715 0.5 0 4.97715 0 10.5C0 16.0228 4.47715 20.5 10 20.5Z" fill="#3E73C4"/>
<path d="M12.514 11.8277C12.514 10.5002 11.714 10.0452 10.114 9.85516C8.97147 9.70328 8.74334 9.40016 8.74334 8.86891C8.74334 8.33766 9.12459 7.99641 9.88584 7.99641C10.5715 7.99641 10.9527 8.22391 11.1427 8.79328C11.1627 8.84824 11.1989 8.89581 11.2466 8.92964C11.2943 8.96348 11.3511 8.98197 11.4096 8.98266H12.019C12.0542 8.9836 12.0892 8.97738 12.1219 8.96438C12.1546 8.95138 12.1844 8.93187 12.2093 8.90703C12.2343 8.88219 12.2539 8.85254 12.2671 8.81988C12.2802 8.78722 12.2866 8.75223 12.2858 8.71703V8.67953C12.2114 8.26759 12.0029 7.89178 11.6929 7.61048C11.3829 7.32917 10.9887 7.15813 10.5715 7.12391V6.21391C10.5715 6.06203 10.4571 5.94828 10.2671 5.91016H9.69522C9.54334 5.91016 9.42897 6.02391 9.39084 6.21391V7.08641C8.24772 7.23766 7.52459 7.99641 7.52459 8.94516C7.52459 10.1964 8.28584 10.6895 9.88584 10.8795C10.9527 11.0689 11.2952 11.297 11.2952 11.9039C11.2952 12.5102 10.7621 12.9277 10.0383 12.9277C9.04772 12.9277 8.70522 12.5108 8.59084 11.9414C8.55334 11.7902 8.43834 11.7139 8.32397 11.7139H7.67647C7.64132 11.7131 7.60637 11.7193 7.57372 11.7324C7.54108 11.7454 7.51141 11.7649 7.48652 11.7898C7.46164 11.8146 7.44204 11.8442 7.42893 11.8768C7.41581 11.9094 7.40945 11.9444 7.41022 11.9795V12.017C7.56209 12.9658 8.17209 13.6483 9.42897 13.8383V14.7489C9.42897 14.9002 9.54334 15.0145 9.73334 15.052H10.3052C10.4571 15.052 10.5715 14.9383 10.6096 14.7489V13.8377C11.7527 13.6483 12.514 12.8514 12.514 11.827V11.8277Z" fill="white"/>
<path d="M8.05756 15.8106C5.08631 14.7481 3.56256 11.4481 4.66756 8.5275C5.23881 6.93375 6.49568 5.72062 8.05756 5.15125C8.21006 5.07562 8.28568 4.96187 8.28568 4.77188V4.24063C8.28568 4.08938 8.21006 3.97563 8.05756 3.9375C8.01943 3.9375 7.94318 3.9375 7.90506 3.975C7.04783 4.2427 6.25201 4.67733 5.56345 5.25386C4.87488 5.83039 4.30715 6.53743 3.89296 7.33427C3.47877 8.13111 3.22629 9.00201 3.15006 9.89683C3.07384 10.7916 3.17537 11.6927 3.44881 12.5481C4.13381 14.6731 5.77193 16.3044 7.90506 16.9869C8.05756 17.0625 8.21006 16.9869 8.24756 16.835C8.28568 16.7975 8.28568 16.7587 8.28568 16.6831V16.1519C8.28568 16.0381 8.17193 15.8869 8.05756 15.8106ZM12.0951 3.97562C11.9426 3.89937 11.7901 3.97562 11.7526 4.12687C11.7144 4.165 11.7144 4.20312 11.7144 4.27875V4.81C11.7144 4.96187 11.8282 5.11312 11.9426 5.18937C14.9138 6.25187 16.4376 9.55188 15.3326 12.4725C14.7613 14.0662 13.5044 15.2794 11.9426 15.8488C11.7901 15.9244 11.7144 16.0381 11.7144 16.2281V16.7594C11.7144 16.9106 11.7901 17.0244 11.9426 17.0625C11.9807 17.0625 12.0569 17.0625 12.0951 17.025C12.9523 16.7573 13.7481 16.3227 14.4367 15.7461C15.1252 15.1696 15.693 14.4626 16.1072 13.6657C16.5213 12.8689 16.7738 11.998 16.8501 11.1032C16.9263 10.2084 16.8247 9.30729 16.5513 8.45187C15.8663 6.28937 14.1901 4.65812 12.0951 3.97562Z" fill="white"/>
</svg>
