<svg width="44" height="40" viewBox="0 0 44 40" fill="none" xmlns="http://www.w3.org/2000/svg">
<path d="M10.531 9.30421L27.6571 16.4861L27.6078 3.45851C24.7923 0.389721 22.2034 -4.58184 10.531 9.30421Z" fill="url(#paint0_linear_662_5862)"/>
<path d="M0.0407346 11.5439L17.1669 18.7257L17.1176 5.69815C14.2931 2.64297 11.7132 -2.3422 0.0407346 11.5439Z" fill="url(#paint1_linear_662_5862)"/>
<path d="M24.4374 0.531738C50.4438 9.0217 41.5421 6.33726 43.4516 37.5967L26.8162 30.9829C26.1149 17.7949 29.166 2.0754 24.4374 0.531738Z" fill="#FCFCFC"/>
<path d="M13.9307 2.77911C39.937 11.2691 31.0516 8.57681 32.9612 39.8362L16.3257 33.2225C15.6245 20.0345 18.6592 4.32277 13.9307 2.77911Z" fill="#FCFCFC"/>
<defs>
<linearGradient id="paint0_linear_662_5862" x1="24.7485" y1="0.0253601" x2="19.1045" y2="16.5173" gradientUnits="userSpaceOnUse">
<stop stop-color="#AFA9A9"/>
<stop offset="1" stop-color="#D9D9D9"/>
</linearGradient>
<linearGradient id="paint1_linear_662_5862" x1="14.2583" y1="2.27023" x2="8.61751" y2="18.7581" gradientUnits="userSpaceOnUse">
<stop stop-color="#AFA9A9"/>
<stop offset="1" stop-color="#D9D9D9"/>
</linearGradient>
</defs>
</svg>
