<svg width="40" height="36" viewBox="0 0 40 36" fill="none" xmlns="http://www.w3.org/2000/svg">
<path d="M29.8055 8.15492C28.0624 3.52867 24.315 0.598633 18.6543 0.598633C11.4518 0.598633 6.41246 5.94676 5.97938 12.9243C2.50684 14.0349 0 17.5774 0 21.5899C0 26.5018 3.86125 30.6511 8.43059 30.6511H12.0418C12.7318 30.6511 13.2918 30.0911 13.2918 29.4011C13.2918 28.7105 12.7318 28.1511 12.0418 28.1511H8.43059C5.21559 28.1511 2.46059 25.1468 2.46059 21.5899C2.46059 18.4468 4.66434 15.6111 7.42871 15.1361L8.56309 14.9405L8.46246 13.7949L8.45309 13.7805C8.45309 7.69176 12.46 3.09926 18.6543 3.09926C23.6193 3.09926 26.4088 5.54551 27.6987 9.71801L27.9662 10.5786L28.8668 10.598C33.5106 10.6955 37.5818 14.463 37.5818 19.1437C37.5818 23.4037 34.7587 28.1512 30.4843 28.1512H27.6281C26.9381 28.1512 26.3781 28.7112 26.3781 29.4012C26.3781 30.0918 26.9381 30.6512 27.6281 30.6512L30.475 30.6475C36.725 30.4825 39.9806 24.5119 39.9806 19.1437C39.9806 13.3737 35.4587 8.76312 29.8056 8.155L29.8055 8.15492ZM20.9368 18.1148C20.93 18.1073 20.9274 18.1011 20.923 18.0948L20.6068 17.7642C20.4337 17.5811 20.203 17.4904 19.9724 17.4917C19.7418 17.4898 19.5124 17.5811 19.3361 17.7641L19.0199 18.0948C19.0137 18.101 19.0124 18.1086 19.0068 18.1148L14.4949 23.1048C14.1455 23.4698 14.1455 24.0604 14.4949 24.4267L14.8099 24.6404C15.1593 25.0054 15.7255 24.8873 16.0743 24.5223L18.735 21.5561V34.1511C18.735 34.8411 19.295 35.4011 19.985 35.4011C20.675 35.4011 21.235 34.8411 21.235 34.1511V21.5679L23.9837 24.6004C24.3331 24.9654 24.8981 25.0835 25.2468 24.7185L25.5618 24.5048C25.9112 24.1385 25.9112 23.5479 25.5618 23.1829L20.9368 18.1148Z" fill="#6B6B6B"/>
</svg>
