<svg width="32" height="32" viewBox="0 0 32 32" fill="none" xmlns="http://www.w3.org/2000/svg">
<path d="M16 6C15.3811 6 14.7876 6.24583 14.35 6.68342C13.9125 7.121 13.6666 7.71449 13.6666 8.33333C13.6666 8.95217 13.9125 9.54566 14.35 9.98325C14.7876 10.4208 15.3811 10.6667 16 10.6667C16.6188 10.6667 17.2123 10.4208 17.6499 9.98325C18.0875 9.54566 18.3333 8.95217 18.3333 8.33333C18.3333 7.71449 18.0875 7.121 17.6499 6.68342C17.2123 6.24583 16.6188 6 16 6ZM11.6666 8.33333C11.6666 7.18406 12.1232 6.08186 12.9358 5.2692C13.7485 4.45655 14.8507 4 16 4C17.1492 4 18.2514 4.45655 19.0641 5.2692C19.8767 6.08186 20.3333 7.18406 20.3333 8.33333C20.3333 9.4826 19.8767 10.5848 19.0641 11.3975C18.2514 12.2101 17.1492 12.6667 16 12.6667C14.8507 12.6667 13.7485 12.2101 12.9358 11.3975C12.1232 10.5848 11.6666 9.4826 11.6666 8.33333ZM6.66663 8.66667C6.13619 8.66667 5.62749 8.87738 5.25241 9.25245C4.87734 9.62753 4.66663 10.1362 4.66663 10.6667C4.66663 11.1971 4.87734 11.7058 5.25241 12.0809C5.62749 12.456 6.13619 12.6667 6.66663 12.6667C7.19706 12.6667 7.70577 12.456 8.08084 12.0809C8.45591 11.7058 8.66663 11.1971 8.66663 10.6667C8.66663 10.1362 8.45591 9.62753 8.08084 9.25245C7.70577 8.87738 7.19706 8.66667 6.66663 8.66667ZM2.66663 10.6667C2.66663 9.6058 3.08805 8.58839 3.8382 7.83824C4.58834 7.08809 5.60576 6.66667 6.66663 6.66667C7.72749 6.66667 8.74491 7.08809 9.49505 7.83824C10.2452 8.58839 10.6666 9.6058 10.6666 10.6667C10.6666 11.7275 10.2452 12.7449 9.49505 13.4951C8.74491 14.2452 7.72749 14.6667 6.66663 14.6667C5.60576 14.6667 4.58834 14.2452 3.8382 13.4951C3.08805 12.7449 2.66663 11.7275 2.66663 10.6667ZM23.3333 10.6667C23.3333 10.1362 23.544 9.62753 23.9191 9.25245C24.2942 8.87738 24.8029 8.66667 25.3333 8.66667C25.8637 8.66667 26.3724 8.87738 26.7475 9.25245C27.1226 9.62753 27.3333 10.1362 27.3333 10.6667C27.3333 11.1971 27.1226 11.7058 26.7475 12.0809C26.3724 12.456 25.8637 12.6667 25.3333 12.6667C24.8029 12.6667 24.2942 12.456 23.9191 12.0809C23.544 11.7058 23.3333 11.1971 23.3333 10.6667ZM25.3333 6.66667C24.2724 6.66667 23.255 7.08809 22.5049 7.83824C21.7547 8.58839 21.3333 9.6058 21.3333 10.6667C21.3333 11.7275 21.7547 12.7449 22.5049 13.4951C23.255 14.2452 24.2724 14.6667 25.3333 14.6667C26.3942 14.6667 27.4116 14.2452 28.1617 13.4951C28.9119 12.7449 29.3333 11.7275 29.3333 10.6667C29.3333 9.6058 28.9119 8.58839 28.1617 7.83824C27.4116 7.08809 26.3942 6.66667 25.3333 6.66667ZM9.99996 17C9.99996 15.712 11.0453 14.6667 12.3333 14.6667H19.6666C20.1173 14.6667 20.5373 14.7947 20.8933 15.0147C19.7585 15.3481 18.704 15.9103 17.7946 16.6667H12.3333C12.2449 16.6667 12.1601 16.7018 12.0976 16.7643C12.0351 16.8268 12 16.9116 12 17V22C12 23.8813 13.2986 25.46 15.0493 25.8867C15.28 26.64 15.612 27.3493 16.0293 28H16C14.4087 28 12.8825 27.3679 11.7573 26.2426C10.6321 25.1174 9.99996 23.5913 9.99996 22V17ZM8.81329 15.9707C8.7164 16.2987 8.66752 16.6418 8.66663 17V18.08L4.91463 19.0853C4.82923 19.1082 4.7564 19.164 4.71214 19.2405C4.66789 19.317 4.65583 19.4079 4.67863 19.4933L5.62796 23.036C5.87145 23.9448 6.42748 24.7386 7.19831 25.278C7.96914 25.8174 8.90544 26.0679 9.84263 25.9853C10.2626 26.6333 10.7826 27.2107 11.38 27.6947C10.6041 27.9519 9.78376 28.0479 8.96941 27.9768C8.15507 27.9056 7.36385 27.6688 6.64431 27.2809C5.92477 26.893 5.29209 26.3621 4.78509 25.7209C4.27809 25.0797 3.90747 24.3416 3.69596 23.552L2.74663 20.0107C2.58656 19.4131 2.67039 18.7763 2.97968 18.2405C3.28897 17.7047 3.7984 17.3136 4.39596 17.1533L8.81329 15.9707ZM30.6666 23.3333C30.6666 21.3884 29.894 19.5232 28.5187 18.1479C27.1435 16.7726 25.2782 16 23.3333 16C21.3884 16 19.5231 16.7726 18.1478 18.1479C16.7726 19.5232 16 21.3884 16 23.3333C16 25.2783 16.7726 27.1435 18.1478 28.5188C19.5231 29.8941 21.3884 30.6667 23.3333 30.6667C25.2782 30.6667 27.1435 29.8941 28.5187 28.5188C29.894 27.1435 30.6666 25.2783 30.6666 23.3333ZM24 24L24.0013 27.3373C24.0013 27.5141 23.9311 27.6837 23.806 27.8087C23.681 27.9338 23.5114 28.004 23.3346 28.004C23.1578 28.004 22.9882 27.9338 22.8632 27.8087C22.7382 27.6837 22.668 27.5141 22.668 27.3373V24H19.328C19.1511 24 18.9816 23.9298 18.8566 23.8047C18.7315 23.6797 18.6613 23.5101 18.6613 23.3333C18.6613 23.1565 18.7315 22.987 18.8566 22.8619C18.9816 22.7369 19.1511 22.6667 19.328 22.6667H22.6666V19.3333C22.6666 19.1565 22.7369 18.987 22.8619 18.8619C22.9869 18.7369 23.1565 18.6667 23.3333 18.6667C23.5101 18.6667 23.6797 18.7369 23.8047 18.8619C23.9297 18.987 24 19.1565 24 19.3333V22.6667H27.3293C27.5061 22.6667 27.6757 22.7369 27.8007 22.8619C27.9257 22.987 27.996 23.1565 27.996 23.3333C27.996 23.5101 27.9257 23.6797 27.8007 23.8047C27.6757 23.9298 27.5061 24 27.3293 24H24Z" fill="#F4F4F4" fill-opacity="0.956863"/>
</svg>
