<svg width="29" height="28" viewBox="0 0 29 28" fill="none" xmlns="http://www.w3.org/2000/svg">
<path d="M10.2541 0.920842C7.45651 1.89137 5.04383 3.73346 3.3705 6.17653C1.69716 8.61961 0.851373 11.5349 0.95736 14.4942C1.06335 17.4535 2.11552 20.3008 3.95934 22.6179C5.80316 24.935 8.34143 26.5998 11.2013 27.3677C13.5199 27.966 15.9491 27.9923 18.2801 27.4443C20.3917 26.97 22.344 25.9554 23.9457 24.4999C25.6128 22.9388 26.8228 20.9528 27.4457 18.7555C28.1228 16.3661 28.2433 13.8532 27.7979 11.4099H14.7779V16.8108H22.3182C22.1675 17.6723 21.8446 18.4944 21.3687 19.2281C20.8929 19.9618 20.2739 20.5919 19.5488 21.0808C18.6281 21.6899 17.5901 22.0997 16.5016 22.284C15.41 22.487 14.2902 22.487 13.1985 22.284C12.0921 22.0552 11.0454 21.5985 10.1251 20.943C8.64665 19.8965 7.53656 18.4097 6.9532 16.6949C6.35999 14.948 6.35999 13.054 6.9532 11.3071C7.36845 10.0826 8.0549 8.96764 8.96133 8.04553C9.99862 6.97091 11.3119 6.20277 12.757 5.82538C14.2021 5.44799 15.7232 5.47594 17.1535 5.90615C18.2708 6.24914 19.2926 6.84839 20.1373 7.65615C20.9875 6.81032 21.8362 5.9623 22.6835 5.11209C23.121 4.6549 23.5979 4.21959 24.0288 3.75147C22.7394 2.55157 21.2259 1.6179 19.5751 1.00397C16.5688 -0.0876179 13.2794 -0.116953 10.2541 0.920842Z" fill="#F4F4F4" fill-opacity="0.956863"/>
<path d="M10.2541 0.920928C13.2791 -0.117572 16.5685 -0.0890089 19.575 1.00187C21.2262 1.61997 22.739 2.55814 24.0266 3.76249C23.5891 4.23062 23.1275 4.66812 22.6813 5.12312C21.8325 5.97041 20.9845 6.81478 20.1372 7.65624C19.2925 6.84848 18.2708 6.24922 17.1534 5.90624C15.7236 5.47452 14.2025 5.44496 12.7571 5.8208C11.3116 6.19665 9.9975 6.96338 8.95907 8.03687C8.05264 8.95897 7.36619 10.0739 6.95095 11.2984L2.41626 7.78749C4.0394 4.56872 6.84977 2.10661 10.2541 0.920928Z" fill="#E33629"/>
<path d="M1.21314 11.2657C1.45687 10.0578 1.86152 8.88797 2.41626 7.7876L6.95095 11.3073C6.35773 13.0542 6.35773 14.9481 6.95095 16.6951C5.44012 17.8618 3.92856 19.0343 2.41626 20.2126C1.02753 17.4483 0.603991 14.2987 1.21314 11.2657Z" fill="#F8BD00"/>
<path d="M14.7778 11.4077H27.7978C28.2432 13.851 28.1227 16.3639 27.4456 18.7533C26.8227 20.9506 25.6127 22.9366 23.9456 24.4977C22.4822 23.3558 21.0122 22.2227 19.5488 21.0808C20.2743 20.5915 20.8936 19.9606 21.3694 19.2261C21.8453 18.4917 22.168 17.6687 22.3181 16.8065H14.7778C14.7756 15.0083 14.7778 13.208 14.7778 11.4077Z" fill="#587DBD"/>
<path d="M2.41406 20.2126C3.92635 19.0459 5.43792 17.8734 6.94875 16.6951C7.53327 18.4105 8.64495 19.8973 10.125 20.9432C11.0481 21.5956 12.0971 22.0486 13.205 22.2732C14.2967 22.4762 15.4164 22.4762 16.5081 22.2732C17.5966 22.0889 18.6346 21.6791 19.5553 21.0701C21.0188 22.2119 22.4888 23.3451 23.9522 24.4869C22.3507 25.9432 20.3984 26.9586 18.2866 27.4335C15.9556 27.9815 13.5264 27.9552 11.2078 27.3569C9.37404 26.8673 7.66117 26.0042 6.17656 24.8216C4.6052 23.5741 3.32178 22.0019 2.41406 20.2126Z" fill="#319F43"/>
</svg>
