<svg width="20" height="19" viewBox="0 0 20 19" fill="none" xmlns="http://www.w3.org/2000/svg">
<path d="M19.5364 0L10.9546 6.43459L12.5504 2.6425L19.5364 0Z" fill="#E17726"/>
<path d="M0.483633 0.00759888L7.4509 2.64298L8.96621 6.48478L0.483633 0.00759888ZM16.0828 13.6846L19.8758 13.7577L18.5502 18.3211L13.9218 17.0298L16.0828 13.6846ZM3.91707 13.6846L6.06996 17.0298L1.44941 18.3211L0.131836 13.7577L3.91707 13.6846Z" fill="#E27625"/>
<path d="M8.76021 5.50619L8.91521 10.5794L4.27686 10.3656L5.59623 8.34859L5.61295 8.32919L8.76021 5.50619ZM11.1917 5.44958L14.387 8.32935L14.4036 8.34867L15.7229 10.3657L11.0856 10.5794L11.1917 5.44958ZM6.20584 13.6993L8.7385 15.699L5.79646 17.1383L6.20584 13.6993ZM13.7946 13.699L14.1954 17.1384L11.2616 15.6988L13.7946 13.699Z" fill="#E27625"/>
<path d="M11.3265 15.5105L14.3036 16.9713L11.5343 18.3049L11.5631 17.4235L11.3265 15.5105ZM8.67285 15.5111L8.44559 17.4091L8.46426 18.3039L5.68848 16.9713L8.67285 15.5111Z" fill="#D5BFB2"/>
<path d="M7.81309 11.2416L8.59105 12.8984L5.94238 12.1121L7.81309 11.2416ZM12.1869 11.2417L14.0664 12.1121L11.4091 12.8981L12.1869 11.2417Z" fill="#233447"/>
<path d="M6.40819 13.6824L5.98007 17.248L3.6853 13.7604L6.40819 13.6824ZM13.5918 13.6825L16.3148 13.7604L14.0114 17.2482L13.5918 13.6825ZM15.7899 10.164L13.8083 12.2105L12.2804 11.503L11.5489 13.0613L11.0694 10.3816L15.7899 10.164ZM4.2089 10.164L8.93038 10.3816L8.45077 13.0613L7.71913 11.5032L6.19937 12.2106L4.2089 10.164Z" fill="#CC6228"/>
<path d="M4.07544 9.74398L6.31747 12.0494L6.39513 14.3254L4.07544 9.74398ZM15.9268 9.73987L13.6029 14.3294L13.6904 12.0494L15.9268 9.73987ZM8.82083 9.88443L8.91106 10.46L9.13403 11.8938L8.99067 16.2974L8.31294 12.7598L8.31271 12.7233L8.82083 9.88443ZM11.1779 9.87643L11.6874 12.7233L11.6872 12.7598L11.0077 16.3063L10.9808 15.4192L10.8748 11.8676L11.1779 9.87643Z" fill="#E27525"/>
<path d="M13.8896 11.9578L13.8137 13.9352L11.4486 15.8025L10.9704 15.4602L11.5064 12.6629L13.8896 11.9578ZM6.11841 11.9578L8.49333 12.6629L9.02927 15.4602L8.55114 15.8025L6.18591 13.9351L6.11841 11.9578Z" fill="#F5841F"/>
<path d="M5.23584 16.5346L8.26178 17.9875L8.24896 17.367L8.50217 17.1418H11.497L11.7594 17.3663L11.74 17.9862L14.7468 16.5382L13.2837 17.7634L11.5145 18.9947H8.47787L6.7099 17.7584L5.23584 16.5346Z" fill="#C0AC9D"/>
<path d="M11.1096 15.3171L11.5375 15.6234L11.7882 17.6504L11.4254 17.3399H8.57566L8.21973 17.6566L8.46223 15.6235L8.8902 15.3171H11.1096Z" fill="#161616"/>
<path d="M18.9698 0.178131L20 3.30973L19.3566 6.47616L19.8148 6.83423L19.1948 7.3135L19.6608 7.67814L19.0438 8.24743L19.4226 8.52539L18.4174 9.71494L14.2948 8.49855L14.2591 8.47915L11.2882 5.93964L18.9698 0.178131ZM1.03016 0.178131L8.71187 5.93964L5.74094 8.47915L5.70523 8.49855L1.58258 9.71494L0.577422 8.52539L0.955859 8.24767L0.339297 7.67814L0.804297 7.3139L0.175078 6.83328L0.650469 6.47497L0 3.30989L1.03016 0.178131Z" fill="#763E1A"/>
<path d="M14.0931 8.23254L18.4613 9.5213L19.8805 13.9535H16.1364L13.5567 13.9865L15.4328 10.2808L14.0931 8.23254ZM5.90689 8.23254L4.56697 10.2808L6.4433 13.9865L3.86478 13.9535H0.127441L1.53861 9.52138L5.90689 8.23254ZM12.7644 2.62137L11.5426 5.96529L11.2833 10.4825L11.1841 11.8984L11.1762 15.5154H8.82377L8.81611 11.9052L8.71658 10.4814L8.45721 5.96529L7.23557 2.62137H12.7644Z" fill="#F5841F"/>
</svg>
