<svg width="32" height="32" viewBox="0 0 32 32" fill="none" xmlns="http://www.w3.org/2000/svg">
<path d="M24.0999 2.07202L29.6639 7.87202V29.928H8.87891V30H29.7349V7.94502L24.0999 2.07202Z" fill="#909090"/>
<path d="M24.0316 2H8.80859V29.928H29.6646V7.873L24.0316 2Z" fill="#F4F4F4"/>
<path d="M8.65562 3.5H2.26562V10.327H22.3656V3.5H8.65562Z" fill="#7A7B7C"/>
<path d="M22.4715 10.2109H2.39453V3.37891H22.4715V10.2109Z" fill="#DD2025"/>
<path d="M9.05114 4.53392H7.74414V9.33392H8.77214V7.71492L8.99914 7.72792C9.21979 7.72488 9.43841 7.68534 9.64614 7.61092C9.82876 7.54891 9.99661 7.44984 10.1391 7.31992C10.2853 7.19736 10.4001 7.04173 10.4741 6.86592C10.5754 6.57463 10.6112 6.26462 10.5791 5.95792C10.5734 5.73877 10.535 5.52171 10.4651 5.31392C10.4022 5.16373 10.3085 5.02834 10.1902 4.91641C10.0719 4.80448 9.93158 4.71848 9.77814 4.66392C9.64586 4.61493 9.50876 4.58007 9.36914 4.55992C9.26367 4.54274 9.157 4.53405 9.05014 4.53392M8.86114 6.82792H8.77214V5.34792H8.96514C9.05032 5.34178 9.13579 5.35485 9.21524 5.38618C9.29469 5.41751 9.36608 5.46629 9.42414 5.52892C9.54446 5.68993 9.60873 5.88592 9.60714 6.08692C9.60714 6.33292 9.60714 6.55592 9.38514 6.71292C9.22525 6.80099 9.04317 6.8416 8.86114 6.82792ZM12.5321 4.52092C12.4211 4.52092 12.3131 4.52892 12.2371 4.53192L11.9991 4.53792H11.2191V9.33792H12.1371C12.4879 9.34694 12.8371 9.2875 13.1651 9.16292C13.4293 9.05862 13.663 8.88981 13.8451 8.67192C14.0236 8.45307 14.151 8.1972 14.2181 7.92292C14.297 7.61285 14.3353 7.29385 14.3321 6.97392C14.3517 6.59607 14.3225 6.21728 14.2451 5.84692C14.1711 5.57461 14.0341 5.32352 13.8451 5.11392C13.6969 4.94443 13.5146 4.80813 13.3101 4.71392C13.135 4.63272 12.9506 4.57295 12.7611 4.53592C12.6858 4.52357 12.6095 4.51788 12.5331 4.51892M12.3511 8.45592H12.2511V5.39192H12.2641C12.4703 5.36808 12.6789 5.40529 12.8641 5.49892C12.9998 5.60725 13.1103 5.74372 13.1881 5.89892C13.2721 6.06225 13.3205 6.24152 13.3301 6.42492C13.3391 6.64492 13.3301 6.82492 13.3301 6.97392C13.3338 7.14555 13.3228 7.31718 13.2971 7.48692C13.2657 7.66098 13.2087 7.82946 13.1281 7.98692C13.0371 8.13376 12.9127 8.25709 12.7651 8.34692C12.6419 8.42692 12.4957 8.46417 12.3491 8.45292M17.4291 4.53792H14.9991V9.33792H16.0271V7.43392H17.3271V6.54192H16.0271V5.42992H17.4271V4.53792" fill="#464648"/>
<path d="M21.7807 20.255C21.7807 20.255 24.9687 19.677 24.9687 20.766C24.9687 21.855 22.9937 21.412 21.7807 20.255ZM19.4237 20.338C18.9171 20.4496 18.4235 20.6135 17.9507 20.827L18.3507 19.927C18.7507 19.027 19.1657 17.8 19.1657 17.8C19.6418 18.6041 20.1972 19.3586 20.8237 20.052C20.3521 20.1223 19.8847 20.2184 19.4237 20.34V20.338ZM18.1617 13.838C18.1617 12.889 18.4687 12.63 18.7077 12.63C18.9467 12.63 19.2157 12.745 19.2247 13.569C19.1467 14.3976 18.9732 15.2143 18.7077 16.003C18.3427 15.3413 18.1543 14.5967 18.1607 13.841L18.1617 13.838ZM13.5127 24.354C12.5347 23.769 15.5637 21.968 16.1127 21.91C16.1097 21.911 14.5367 24.966 13.5127 24.354ZM25.8997 20.895C25.8897 20.795 25.7997 19.688 23.8297 19.735C23.0085 19.7206 22.1877 19.7785 21.3767 19.908C20.5906 19.1167 19.9139 18.2238 19.3647 17.253C19.7105 16.2523 19.92 15.2096 19.9877 14.153C19.9587 12.953 19.6717 12.265 18.7517 12.275C17.8317 12.285 17.6977 13.09 17.8187 14.288C17.9371 15.0931 18.1607 15.8791 18.4837 16.626C18.4837 16.626 18.0587 17.949 17.4967 19.265C16.9347 20.581 16.5507 21.271 16.5507 21.271C15.5733 21.5888 14.6532 22.0615 13.8257 22.671C13.0017 23.438 12.6667 24.027 13.1007 24.616C13.4747 25.124 14.7837 25.239 15.9537 23.706C16.5743 22.9134 17.1422 22.081 17.6537 21.214C17.6537 21.214 19.4377 20.725 19.9927 20.591C20.5477 20.457 21.2187 20.351 21.2187 20.351C21.2187 20.351 22.8477 21.99 24.4187 21.932C25.9897 21.874 25.9137 20.993 25.9037 20.897" fill="#DD2025"/>
<path d="M23.9531 2.0769V7.9499H29.5861L23.9531 2.0769Z" fill="#909090"/>
<path d="M24.0312 2V7.873H29.6642L24.0312 2Z" fill="#F4F4F4"/>
<path d="M8.97497 4.45702H7.66797V9.25702H8.69997V7.63902L8.92797 7.65202C9.14861 7.64897 9.36723 7.60944 9.57497 7.53502C9.75759 7.47301 9.92543 7.37394 10.068 7.24402C10.213 7.12112 10.3268 6.96551 10.4 6.79002C10.5012 6.49873 10.5371 6.18872 10.505 5.88202C10.4993 5.66287 10.4608 5.4458 10.391 5.23802C10.328 5.08782 10.2344 4.95243 10.1161 4.84051C9.99778 4.72858 9.85741 4.64258 9.70397 4.58802C9.57108 4.53854 9.4333 4.50335 9.29297 4.48302C9.1875 4.46584 9.08083 4.45715 8.97397 4.45702M8.78497 6.75102H8.69597V5.27102H8.88997C8.97515 5.26487 9.06062 5.27795 9.14007 5.30928C9.21952 5.34061 9.29091 5.38939 9.34897 5.45202C9.46929 5.61303 9.53356 5.80902 9.53197 6.01002C9.53197 6.25602 9.53197 6.47902 9.30997 6.63602C9.15008 6.72409 8.968 6.7637 8.78597 6.75002M12.456 4.44402C12.345 4.44402 12.237 4.45202 12.161 4.45502L11.926 4.46102H11.146V9.26101H12.064C12.4148 9.27004 12.7639 9.2106 13.092 9.08602C13.3561 8.98171 13.5899 8.81291 13.772 8.59502C13.9504 8.37617 14.0778 8.1203 14.145 7.84602C14.2238 7.53594 14.2622 7.21695 14.259 6.89702C14.2785 6.51917 14.2493 6.14038 14.172 5.77002C14.0979 5.4977 13.9609 5.24662 13.772 5.03702C13.6238 4.86753 13.4415 4.73122 13.237 4.63702C13.0618 4.55581 12.8775 4.49605 12.688 4.45902C12.6126 4.44666 12.5363 4.44097 12.46 4.44202M12.278 8.37901H12.178V5.31502H12.191C12.3971 5.29118 12.6058 5.32838 12.791 5.42202C12.9266 5.53034 13.0372 5.66681 13.115 5.82202C13.1989 5.98535 13.2473 6.16462 13.257 6.34802C13.266 6.56802 13.257 6.74802 13.257 6.89702C13.2607 7.06864 13.2496 7.24027 13.224 7.41002C13.1925 7.58408 13.1356 7.75256 13.055 7.91002C12.9639 8.05686 12.8396 8.18019 12.692 8.27002C12.5687 8.35002 12.4225 8.38727 12.276 8.37602M17.353 4.46102H14.923V9.26101H15.951V7.35702H17.251V6.46502H15.951V5.35302H17.351V4.46102" fill="#F4F4F4" fill-opacity="0.956863"/>
</svg>
