<svg width="24" height="24" viewBox="0 0 24 24" fill="none" xmlns="http://www.w3.org/2000/svg">
<path d="M5.13 19.2C7.427 19.2 9.153 17.28 10.183 15.764C10.0602 16.0813 9.99418 16.4178 9.988 16.758C9.988 17.643 10.518 18.274 11.562 18.274C12.995 18.274 14.527 17.066 15.32 15.764C15.2692 15.9342 15.2413 16.1104 15.237 16.288C15.237 16.905 15.599 17.294 16.337 17.294C18.661 17.294 21 13.335 21 9.87299C21 7.17499 19.58 4.79999 16.016 4.79999C9.752 4.79999 3 12.154 3 16.905C3 18.771 4.044 19.2 5.13 19.2ZM13.859 9.57799C13.859 8.90699 14.249 8.43699 14.819 8.43699C15.376 8.43699 15.766 8.90699 15.766 9.57699C15.766 10.249 15.376 10.732 14.819 10.732C14.249 10.732 13.859 10.249 13.859 9.57799ZM16.838 9.57799C16.838 8.90699 17.228 8.43699 17.798 8.43699C18.355 8.43699 18.745 8.90699 18.745 9.57699C18.745 10.249 18.355 10.732 17.798 10.732C17.228 10.732 16.838 10.249 16.838 9.57799Z" fill="#AB9FF2"/>
</svg>
