<svg width="33" height="32" viewBox="0 0 33 32" fill="none" xmlns="http://www.w3.org/2000/svg">
<path fill-rule="evenodd" clip-rule="evenodd" d="M28.6332 10.6721C28.5576 10.6676 28.4772 10.6658 28.3918 10.6667H25.0252C22.2678 10.6667 19.9092 12.8374 19.9092 15.6667C19.9092 18.4961 22.2692 20.6667 25.0252 20.6667H28.3918C28.4772 20.6676 28.5581 20.6658 28.6345 20.6614C29.2012 20.6272 29.7362 20.3882 30.1397 19.9888C30.5432 19.5895 30.7878 19.057 30.8278 18.4907C30.8332 18.4107 30.8332 18.3241 30.8332 18.2441V13.0894C30.8332 13.0094 30.8332 12.9227 30.8278 12.8427C30.7878 12.2764 30.5432 11.744 30.1397 11.3446C29.7362 10.9453 29.1999 10.7062 28.6332 10.6721ZM24.7305 17.0001C25.4398 17.0001 26.0145 16.4027 26.0145 15.6667C26.0145 14.9307 25.4398 14.3334 24.7305 14.3334C24.0198 14.3334 23.4452 14.9307 23.4452 15.6667C23.4452 16.4027 24.0198 17.0001 24.7305 17.0001Z" fill="white"/>
<path fill-rule="evenodd" clip-rule="evenodd" d="M28.391 22.6667C28.4371 22.6648 28.483 22.6739 28.5249 22.6931C28.5669 22.7123 28.6037 22.7411 28.6324 22.7772C28.6611 22.8133 28.6809 22.8557 28.6901 22.9009C28.6994 22.9461 28.6979 22.9928 28.6857 23.0373C28.419 23.9867 27.9937 24.7973 27.3123 25.4773C26.3137 26.4773 25.0483 26.9187 23.4857 27.1293C21.9657 27.3333 20.0257 27.3333 17.575 27.3333H14.759C12.3083 27.3333 10.367 27.3333 8.84833 27.1293C7.28566 26.9187 6.02033 26.476 5.02166 25.4787C4.02433 24.48 3.58166 23.2147 3.37099 21.652C3.16699 20.132 3.16699 18.192 3.16699 15.7413V15.592C3.16699 13.1413 3.16699 11.2 3.37099 9.68C3.58166 8.11733 4.02433 6.852 5.02166 5.85333C6.02033 4.856 7.28566 4.41333 8.84833 4.20267C10.3683 4 12.3083 4 14.759 4H17.575C20.0257 4 21.967 4 23.4857 4.204C25.0483 4.41467 26.3137 4.85733 27.3123 5.85467C27.9937 6.53733 28.419 7.34667 28.6857 8.296C28.6979 8.34049 28.6994 8.38723 28.6901 8.43243C28.6809 8.47762 28.6611 8.52 28.6324 8.55611C28.6037 8.59222 28.5669 8.62105 28.5249 8.64026C28.483 8.65947 28.4371 8.66852 28.391 8.66667H25.0257C21.243 8.66667 17.9097 11.6533 17.9097 15.6667C17.9097 19.68 21.243 22.6667 25.0257 22.6667H28.391ZM9.83366 20.6667C9.56844 20.6667 9.31409 20.5613 9.12655 20.3738C8.93902 20.1862 8.83366 19.9319 8.83366 19.6667V11.6667C8.83366 11.4015 8.93902 11.1471 9.12655 10.9596C9.31409 10.772 9.56844 10.6667 9.83366 10.6667C10.0989 10.6667 10.3532 10.772 10.5408 10.9596C10.7283 11.1471 10.8337 11.4015 10.8337 11.6667V19.6667C10.8337 19.9319 10.7283 20.1862 10.5408 20.3738C10.3532 20.5613 10.0989 20.6667 9.83366 20.6667Z" fill="white"/>
</svg>
