<svg width="32" height="32" viewBox="0 0 32 32" fill="none" xmlns="http://www.w3.org/2000/svg">
<path d="M29.3334 13.9998V15.9998C29.3334 22.2852 29.3334 25.4278 27.38 27.3798C25.4294 29.3332 22.2854 29.3332 16 29.3332C9.71469 29.3332 6.57202 29.3332 4.61869 27.3798C2.66669 25.4292 2.66669 22.2852 2.66669 15.9998C2.66669 9.7145 2.66669 6.57184 4.61869 4.6185C6.57335 2.6665 9.71469 2.6665 16 2.6665H18" stroke="#F4F4F4" stroke-opacity="0.956863" stroke-width="2" stroke-linecap="round"/>
<path d="M25.3334 10.6665C27.5425 10.6665 29.3334 8.87564 29.3334 6.6665C29.3334 4.45736 27.5425 2.6665 25.3334 2.6665C23.1242 2.6665 21.3334 4.45736 21.3334 6.6665C21.3334 8.87564 23.1242 10.6665 25.3334 10.6665Z" stroke="#F4F4F4" stroke-opacity="0.956863" stroke-width="2"/>
<path d="M9.33337 18.6665H21.3334M9.33337 23.3332H17.3334" stroke="#F4F4F4" stroke-opacity="0.956863" stroke-width="2" stroke-linecap="round"/>
</svg>
