<svg width="32" height="32" viewBox="0 0 32 32" fill="none" xmlns="http://www.w3.org/2000/svg">
<path d="M3.66669 10.0934C3.66669 6.61342 6.72935 3.66675 10.6667 3.66675C13.576 3.66675 16.032 5.29075 17.096 7.54675C17.2092 7.78668 17.413 7.97183 17.6627 8.06148C17.9124 8.15112 18.1874 8.13791 18.4274 8.02475C18.6673 7.91159 18.8524 7.70775 18.9421 7.45808C19.0317 7.20841 19.0185 6.93335 18.9054 6.69341C17.496 3.70675 14.316 1.66675 10.6667 1.66675C5.76802 1.66675 1.66669 5.37075 1.66669 10.0934C1.66669 11.8401 2.23469 13.4587 3.19869 14.7974L2.24935 17.5867C1.76935 18.9987 3.33869 20.2201 4.58935 19.4134L7.06135 17.8161C7.50224 17.9965 7.96002 18.1436 8.43469 18.2574C8.69161 18.316 8.96128 18.2709 9.18509 18.1318C9.4089 17.9927 9.56875 17.7708 9.62989 17.5145C9.69103 17.2582 9.64852 16.9881 9.5116 16.7629C9.37467 16.5377 9.15441 16.3757 8.89869 16.3121C8.38457 16.1894 7.88522 16.0115 7.40935 15.7814L6.90269 15.5374L4.54002 17.0641L5.44402 14.4041L5.08802 13.9747C4.17452 12.8872 3.67153 11.5137 3.66669 10.0934ZM16.2667 19.4934C15.8267 18.1734 16.3467 16.5467 17.7867 16.0934C18.5334 15.8667 19.4667 16.0534 20 16.7601C20.5067 16.0267 21.4667 15.8667 22.2134 16.0934C23.6534 16.5334 24.1734 18.1734 23.7334 19.4934C23.0534 21.5867 20.6667 22.6667 20 22.6667C19.3334 22.6667 16.9734 21.6001 16.2667 19.4934Z" fill="#F4F4F4" fill-opacity="0.956863"/>
<path d="M20 9.66659C14.364 9.66659 9.66669 13.9266 9.66669 19.3333C9.66669 24.7399 14.364 28.9999 20 28.9999C21.4494 29.0021 22.8848 28.7162 24.2227 28.1586L27.18 30.0693C28.5067 30.9266 30.172 29.6293 29.6627 28.1333L28.528 24.7946C29.698 23.2139 30.3308 21.2999 30.3334 19.3333C30.3334 13.9266 25.636 9.66659 20 9.66659ZM11.6667 19.3333C11.6667 15.1679 15.3267 11.6666 20 11.6666C24.6734 11.6666 28.3334 15.1679 28.3334 19.3333C28.3282 21.0297 27.7275 22.6705 26.636 23.9693L26.28 24.3999L27.46 27.8693L24.38 25.8773L23.8734 26.1226C22.665 26.7037 21.3408 27.0036 20 26.9999C15.3267 26.9999 11.6667 23.4986 11.6667 19.3333ZM7.33335 7.33325C7.15654 7.33325 6.98697 7.40349 6.86195 7.52851C6.73693 7.65354 6.66669 7.82311 6.66669 7.99992C6.66669 8.17673 6.73693 8.3463 6.86195 8.47132C6.98697 8.59635 7.15654 8.66659 7.33335 8.66659H14C14.1768 8.66659 14.3464 8.59635 14.4714 8.47132C14.5964 8.3463 14.6667 8.17673 14.6667 7.99992C14.6667 7.82311 14.5964 7.65354 14.4714 7.52851C14.3464 7.40349 14.1768 7.33325 14 7.33325H7.33335ZM6.66669 13.3333C6.66669 13.1564 6.73693 12.9869 6.86195 12.8618C6.98697 12.7368 7.15654 12.6666 7.33335 12.6666H8.66669C8.8435 12.6666 9.01307 12.7368 9.13809 12.8618C9.26312 12.9869 9.33335 13.1564 9.33335 13.3333C9.33335 13.5101 9.26312 13.6796 9.13809 13.8047C9.01307 13.9297 8.8435 13.9999 8.66669 13.9999H7.33335C7.15654 13.9999 6.98697 13.9297 6.86195 13.8047C6.73693 13.6796 6.66669 13.5101 6.66669 13.3333ZM7.33335 9.99992C7.15654 9.99992 6.98697 10.0702 6.86195 10.1952C6.73693 10.3202 6.66669 10.4898 6.66669 10.6666C6.66669 10.8434 6.73693 11.013 6.86195 11.138C6.98697 11.263 7.15654 11.3333 7.33335 11.3333H11.3334C11.5102 11.3333 11.6797 11.263 11.8048 11.138C11.9298 11.013 12 10.8434 12 10.6666C12 10.4898 11.9298 10.3202 11.8048 10.1952C11.6797 10.0702 11.5102 9.99992 11.3334 9.99992H7.33335Z" fill="#F4F4F4" fill-opacity="0.956863"/>
</svg>
