<svg width="32" height="32" viewBox="0 0 32 32" fill="none" xmlns="http://www.w3.org/2000/svg">
<path d="M6.88137 2.66675H21.7867C22.4894 2.66675 23.096 2.66675 23.5947 2.70675C24.1214 2.75075 24.6467 2.84541 25.1507 3.10275C25.9033 3.48624 26.5152 4.09813 26.8987 4.85075C27.156 5.35475 27.2507 5.88008 27.2934 6.40675C27.3347 6.90675 27.3347 7.51341 27.3347 8.21475V16.6667C27.3347 17.0204 27.1942 17.3595 26.9442 17.6096C26.6941 17.8596 26.355 18.0001 26.0014 18.0001C25.6478 18.0001 25.3086 17.8596 25.0586 17.6096C24.8085 17.3595 24.668 17.0204 24.668 16.6667V8.26675C24.668 7.49741 24.668 7.00141 24.636 6.62408C24.6067 6.26141 24.556 6.12675 24.5227 6.06141C24.3949 5.81054 24.1909 5.60658 23.94 5.47875C23.8734 5.44542 23.74 5.39475 23.3774 5.36542C23 5.33342 22.5027 5.33341 21.7334 5.33341H6.93337C6.16404 5.33341 5.66804 5.33342 5.29071 5.36542C4.92804 5.39475 4.79337 5.44542 4.72804 5.47875C4.47717 5.60658 4.2732 5.81054 4.14537 6.06141C4.11204 6.12808 4.06137 6.26141 4.03204 6.62408C4.00004 7.00008 4.00004 7.49741 4.00004 8.26675V28.0001C4.00004 28.3537 3.85957 28.6928 3.60952 28.9429C3.35947 29.1929 3.02033 29.3334 2.66671 29.3334C2.31309 29.3334 1.97395 29.1929 1.7239 28.9429C1.47385 28.6928 1.33337 28.3537 1.33337 28.0001V8.21475C1.33337 7.51208 1.33337 6.90675 1.37337 6.40675C1.41737 5.88008 1.51204 5.35475 1.76937 4.85075C2.15286 4.09813 2.76476 3.48624 3.51737 3.10275C4.02137 2.84541 4.54671 2.75075 5.07337 2.70808C5.57337 2.66675 6.18004 2.66675 6.88137 2.66675Z" fill="#F4F4F4" fill-opacity="0.956863"/>
<path d="M8.66671 8.66675C8.31309 8.66675 7.97395 8.80722 7.7239 9.05727C7.47385 9.30732 7.33337 9.64646 7.33337 10.0001C7.33337 10.3537 7.47385 10.6928 7.7239 10.9429C7.97395 11.1929 8.31309 11.3334 8.66671 11.3334H20.6667C21.0203 11.3334 21.3595 11.1929 21.6095 10.9429C21.8596 10.6928 22 10.3537 22 10.0001C22 9.64646 21.8596 9.30732 21.6095 9.05727C21.3595 8.80722 21.0203 8.66675 20.6667 8.66675H8.66671ZM15.5467 13.3467C15.7 13.3334 15.8774 13.3334 16.04 13.3334H18.6267C18.7894 13.3334 18.9667 13.3334 19.12 13.3467C19.2934 13.3601 19.52 13.3947 19.7574 13.5147C20.0707 13.6747 20.3254 13.9294 20.4854 14.2441C20.6054 14.4787 20.64 14.7081 20.6547 14.8814C20.668 15.0334 20.6667 15.2107 20.6667 15.3734V16.9601C20.6667 17.1241 20.6667 17.3001 20.6534 17.4534C20.64 17.6267 20.6054 17.8534 20.4854 18.0907C20.3256 18.4042 20.0708 18.659 19.7574 18.8187C19.5214 18.9387 19.292 18.9734 19.1187 18.9881C18.9667 19.0014 18.7894 19.0001 18.6267 19.0001H16.04C15.8774 19.0001 15.7 19.0001 15.5467 18.9867C15.3255 18.972 15.1091 18.915 14.9094 18.8187C14.596 18.659 14.3411 18.4042 14.1814 18.0907C14.0845 17.8907 14.027 17.6739 14.012 17.4521C13.9987 17.3001 14 17.1227 14 16.9601V15.3734C14 15.2107 14 15.0334 14.0134 14.8801C14.0267 14.7067 14.0614 14.4801 14.1814 14.2427C14.3415 13.9291 14.5968 13.6743 14.9107 13.5147C15.1104 13.418 15.3267 13.3606 15.548 13.3454M8.66671 14.6667C8.66671 14.4015 8.77206 14.1472 8.9596 13.9596C9.14714 13.7721 9.40149 13.6667 9.66671 13.6667H11.6667C11.9319 13.6667 12.1863 13.7721 12.3738 13.9596C12.5614 14.1472 12.6667 14.4015 12.6667 14.6667C12.6667 14.932 12.5614 15.1863 12.3738 15.3739C12.1863 15.5614 11.9319 15.6667 11.6667 15.6667H9.66671C9.40149 15.6667 9.14714 15.5614 8.9596 15.3739C8.77206 15.1863 8.66671 14.932 8.66671 14.6667ZM9.66671 16.6667C9.40149 16.6667 9.14714 16.7721 8.9596 16.9596C8.77206 17.1472 8.66671 17.4015 8.66671 17.6667C8.66671 17.932 8.77206 18.1863 8.9596 18.3739C9.14714 18.5614 9.40149 18.6667 9.66671 18.6667H11.6667C11.9319 18.6667 12.1863 18.5614 12.3738 18.3739C12.5614 18.1863 12.6667 17.932 12.6667 17.6667C12.6667 17.4015 12.5614 17.1472 12.3738 16.9596C12.1863 16.7721 11.9319 16.6667 11.6667 16.6667H9.66671ZM8.66671 21.3334C8.66671 21.0682 8.77206 20.8138 8.9596 20.6263C9.14714 20.4388 9.40149 20.3334 9.66671 20.3334H19.6667C19.9319 20.3334 20.1863 20.4388 20.3738 20.6263C20.5614 20.8138 20.6667 21.0682 20.6667 21.3334C20.6667 21.5986 20.5614 21.853 20.3738 22.0405C20.1863 22.2281 19.9319 22.3334 19.6667 22.3334H9.66671C9.40149 22.3334 9.14714 22.2281 8.9596 22.0405C8.77206 21.853 8.66671 21.5986 8.66671 21.3334ZM9.66671 23.6667C9.40149 23.6667 9.14714 23.7721 8.9596 23.9596C8.77206 24.1472 8.66671 24.4015 8.66671 24.6667C8.66671 24.932 8.77206 25.1863 8.9596 25.3739C9.14714 25.5614 9.40149 25.6667 9.66671 25.6667H16.0667C16.3319 25.6667 16.5863 25.5614 16.7738 25.3739C16.9614 25.1863 17.0667 24.932 17.0667 24.6667C17.0667 24.4015 16.9614 24.1472 16.7738 23.9596C16.5863 23.7721 16.3319 23.6667 16.0667 23.6667H9.66671ZM26.1467 19.3587L30.652 23.2281C31.2414 23.7347 31.2467 24.7521 30.6654 25.2694L26.1587 29.2801C25.2254 30.2001 23.74 29.2668 23.9547 28.0441L24.1507 26.9374C23.108 27.0107 22.2947 27.1907 21.6374 27.5041C20.7907 27.9081 20.1187 28.5761 19.5747 29.7534C19.108 30.7601 17.5387 30.3134 17.6747 29.2108C17.9987 26.5761 18.8387 24.6374 20.2214 23.3667C21.324 22.3547 22.6787 21.8507 24.1587 21.6841L23.9627 20.6227C23.7387 19.4094 25.2014 18.4601 26.1467 19.3587Z" fill="#F4F4F4" fill-opacity="0.956863"/>
</svg>
