<svg width="30" height="30" viewBox="0 0 30 30" fill="none" xmlns="http://www.w3.org/2000/svg">
<path d="M28.3334 12.9998V14.9998C28.3334 21.2852 28.3334 24.4278 26.38 26.3798C24.4294 28.3332 21.2854 28.3332 15 28.3332C8.71469 28.3332 5.57202 28.3332 3.61869 26.3798C1.66669 24.4292 1.66669 21.2852 1.66669 14.9998C1.66669 8.7145 1.66669 5.57184 3.61869 3.6185C5.57335 1.6665 8.71469 1.6665 15 1.6665H17" stroke="#F4F4F4" stroke-opacity="0.956863" stroke-width="2" stroke-linecap="round"/>
<path d="M24.3334 9.6665C26.5425 9.6665 28.3334 7.87564 28.3334 5.6665C28.3334 3.45736 26.5425 1.6665 24.3334 1.6665C22.1242 1.6665 20.3334 3.45736 20.3334 5.6665C20.3334 7.87564 22.1242 9.6665 24.3334 9.6665Z" stroke="#F4F4F4" stroke-opacity="0.956863" stroke-width="2"/>
<path d="M8.33337 17.6665H20.3334M8.33337 22.3332H16.3334" stroke="#F4F4F4" stroke-opacity="0.956863" stroke-width="2" stroke-linecap="round"/>
</svg>
