<svg width="32" height="32" viewBox="0 0 32 32" fill="none" xmlns="http://www.w3.org/2000/svg">
<path d="M10.3333 26.5334H3.66667C2.95942 26.5334 2.28115 26.2525 1.78105 25.7524C1.28095 25.2523 1 24.574 1 23.8668V3.69743C1 2.99018 1.28095 2.31191 1.78105 1.81181C2.28115 1.31171 2.95942 1.03076 3.66667 1.03076H27.6667C28.3739 1.03076 29.0522 1.31171 29.5523 1.81181C30.0524 2.31191 30.3333 2.99018 30.3333 3.69743V12.5334M1 7.40676H30.3333M31 27.5414L23 30.9694V21.8268L31 18.4001V27.5414Z" stroke="#F4F4F4" stroke-opacity="0.956863" stroke-width="2" stroke-linecap="round" stroke-linejoin="round"/>
<path d="M15 27.5415L23 30.9695V21.8268L15 18.4001V27.5415Z" stroke="#F4F4F4" stroke-opacity="0.956863" stroke-width="2" stroke-linecap="round" stroke-linejoin="round"/>
<path d="M23 14.9695L31 18.3988L23 21.8268L15 18.4001L23 14.9695Z" stroke="#F4F4F4" stroke-opacity="0.956863" stroke-width="2" stroke-linecap="round" stroke-linejoin="round"/>
</svg>
