<svg width="32" height="32" viewBox="0 0 32 32" fill="none" xmlns="http://www.w3.org/2000/svg">
<path d="M15.928 17V31C15.928 31 14.4213 26.8787 7.51733 22.4853" stroke="#F4F4F4" stroke-opacity="0.956863" stroke-width="2" stroke-linecap="round" stroke-linejoin="round"/>
<path d="M15.928 31C15.928 31 17.4347 26.8786 24.34 22.4853M4.88133 25.3333C6.24933 26.8213 8.40399 27.364 9.71199 24.5813C12.948 22.6666 11.6213 20.2426 9.78266 18.9733C8.42423 18.3113 6.92904 17.9785 5.41808 18.0016C3.90712 18.0248 2.42283 18.4033 1.08533 19.1066C3.29333 21.2466 3.17999 23.4786 4.88133 25.3333Z" stroke="#F4F4F4" stroke-opacity="0.956863" stroke-width="2" stroke-linecap="round" stroke-linejoin="round"/>
<path d="M17.928 5H15.2173C14.8001 4.99702 14.395 5.14013 14.0723 5.40453C13.7495 5.66893 13.5295 6.03794 13.4503 6.44758C13.3711 6.85721 13.4378 7.28164 13.6388 7.64726C13.8398 8.01288 14.1624 8.29664 14.5506 8.44933L17.3013 9.55067C17.6867 9.70574 18.0061 9.99007 18.2048 10.3549C18.4035 10.7197 18.469 11.1423 18.3902 11.5502C18.3114 11.9581 18.0931 12.3258 17.7728 12.5904C17.4524 12.8549 17.0501 12.9997 16.6346 13H13.928M15.928 5V4M15.928 14V13M26.9746 25.3333C25.608 26.8213 23.452 27.364 22.1453 24.5813C18.9093 22.664 20.236 20.2413 22.0733 18.972C23.4319 18.3098 24.9273 17.9768 26.4386 18C27.9498 18.0232 29.4343 18.4018 30.772 19.1053C28.5626 21.2467 28.6773 23.4787 26.9746 25.3333Z" stroke="#F4F4F4" stroke-opacity="0.956863" stroke-width="2" stroke-linecap="round" stroke-linejoin="round"/>
<path d="M7.92798 9C7.92798 10.0506 8.1349 11.0909 8.53694 12.0615C8.93898 13.0321 9.52826 13.914 10.2711 14.6569C11.014 15.3997 11.8959 15.989 12.8665 16.391C13.8371 16.7931 14.8774 17 15.928 17C16.9786 17 18.0188 16.7931 18.9894 16.391C19.9601 15.989 20.842 15.3997 21.5848 14.6569C22.3277 13.914 22.917 13.0321 23.319 12.0615C23.7211 11.0909 23.928 10.0506 23.928 9C23.928 6.87827 23.0851 4.84344 21.5848 3.34315C20.0845 1.84285 18.0497 1 15.928 1C13.8062 1 11.7714 1.84285 10.2711 3.34315C8.77083 4.84344 7.92798 6.87827 7.92798 9Z" stroke="#F4F4F4" stroke-opacity="0.956863" stroke-width="2" stroke-linecap="round" stroke-linejoin="round"/>
</svg>
