<svg width="140" height="40" viewBox="0 0 140 40" fill="none" xmlns="http://www.w3.org/2000/svg">
<path d="M10.532 9.30436L27.6581 16.4862L27.6088 3.45866C24.7933 0.389873 22.2044 -4.58169 10.532 9.30436Z" fill="url(#paint0_linear_511_2612)"/>
<path d="M0.0417111 11.5439L17.1678 18.7258L17.1185 5.69824C14.2941 2.64306 11.7142 -2.34211 0.0417111 11.5439Z" fill="url(#paint1_linear_511_2612)"/>
<path d="M24.4384 0.531879C50.4448 9.02184 41.5431 6.3374 43.4526 37.5968L26.8171 30.983C26.1159 17.7951 29.1669 2.07554 24.4384 0.531879Z" fill="#FCFCFC"/>
<path d="M13.9316 2.77925C39.938 11.2692 31.0526 8.57695 32.9622 39.8364L16.3267 33.2226C15.6255 20.0346 18.6602 4.32291 13.9316 2.77925Z" fill="#FCFCFC"/>
<path d="M57.6899 10.9516V25.1868C57.6899 25.9258 57.8649 26.4606 58.215 26.7912C58.565 27.1218 59.0512 27.2871 59.6735 27.2871C60.1402 27.2871 60.5486 27.2191 60.8987 27.0829C61.2487 26.9274 61.5696 26.7329 61.8613 26.4995L62.4447 29.1249C61.978 29.4749 61.4043 29.7569 60.7236 29.9708C60.043 30.1847 59.3332 30.2917 58.5942 30.2917C57.1162 30.2917 55.9299 29.9611 55.0354 29.2999C54.1408 28.6193 53.6935 27.4719 53.6935 25.8578V12.0601L57.6899 10.9516ZM62.2113 15.4147V18.3901H51.1265V15.4147H62.2113ZM64.8358 30V15.4147H68.3654L68.5696 18.3609C68.9197 17.3302 69.4545 16.5329 70.174 15.9689C70.913 15.405 71.8173 15.123 72.8869 15.123C73.2175 15.123 73.5092 15.1521 73.762 15.2105C74.0343 15.2688 74.2579 15.3466 74.4329 15.4439L73.9662 18.8276C73.8106 18.7499 73.587 18.6915 73.2953 18.6526C73.023 18.5943 72.673 18.5651 72.2451 18.5651C71.6617 18.5651 71.1075 18.711 70.5824 19.0027C70.0768 19.2944 69.6587 19.7319 69.3281 20.3153C69.0169 20.8793 68.8613 21.5891 68.8613 22.4448V30H64.8358ZM84.4533 20.6654C84.4533 19.8486 84.2296 19.2069 83.7824 18.7401C83.3545 18.254 82.7614 18.0109 82.0029 18.0109C81.264 18.0109 80.6319 18.1956 80.1069 18.5651C79.5818 18.9346 79.2026 19.5569 78.9692 20.432L75.5854 19.4111C75.8966 18.1081 76.6064 17.0677 77.7149 16.2898C78.8233 15.5119 80.3208 15.123 82.2071 15.123C83.4906 15.123 84.5991 15.3272 85.5326 15.7356C86.4661 16.1245 87.1856 16.7176 87.6912 17.515C88.2163 18.3123 88.4788 19.3041 88.4788 20.4904V26.412C88.4788 27.1704 88.8191 27.5497 89.4998 27.5497C89.6554 27.5497 89.811 27.5399 89.9665 27.5205C90.1416 27.501 90.2874 27.4719 90.4041 27.433L90.1707 29.8833C89.9374 30 89.6651 30.0875 89.3539 30.1459C89.0428 30.2042 88.683 30.2334 88.2746 30.2334C87.6134 30.2334 87.0106 30.1264 86.4661 29.9125C85.941 29.6791 85.5229 29.3291 85.2117 28.8623C84.92 28.3762 84.7742 27.7636 84.7742 27.0246V26.7912L85.3284 26.6745C85.2506 27.4719 84.9589 28.1428 84.4533 28.6873C83.9477 29.2318 83.3253 29.6402 82.5864 29.9125C81.8474 30.1653 81.0695 30.2917 80.2527 30.2917C78.8525 30.2917 77.7051 29.9514 76.8106 29.2707C75.9355 28.5901 75.4979 27.5983 75.4979 26.2953C75.4979 25.2646 75.8188 24.3992 76.4605 23.6991C77.1023 22.999 78.0844 22.5129 79.4068 22.2406L84.8908 21.0738V23.4366L81.5362 24.1367C80.875 24.2728 80.3694 24.477 80.0193 24.7493C79.6693 25.0215 79.4943 25.4202 79.4943 25.9453C79.4943 26.4509 79.6693 26.8398 80.0193 27.1121C80.3888 27.3844 80.8556 27.5205 81.4195 27.5205C81.8085 27.5205 82.1877 27.4719 82.5572 27.3746C82.9267 27.258 83.2476 27.0829 83.5198 26.8496C83.8115 26.5968 84.0352 26.2953 84.1907 25.9453C84.3658 25.5758 84.4533 25.1382 84.4533 24.6326V20.6654ZM91.7931 30V27.433L98.0356 19.9361L99.6108 18.2734L97.3064 18.3317H91.8223V15.4147H104.074V17.9817L97.8898 25.4202L96.2562 27.1413L98.8232 27.0829H104.336V30H91.7931ZM113.903 30.2917C112.406 30.2917 111.093 30 109.965 29.4166C108.857 28.8137 107.991 27.9483 107.369 26.8204C106.747 25.673 106.435 24.302 106.435 22.7073C106.435 21.1127 106.747 19.7514 107.369 18.6235C107.991 17.4761 108.847 16.6107 109.936 16.0273C111.025 15.4244 112.279 15.123 113.699 15.123C115.138 15.123 116.363 15.4244 117.374 16.0273C118.405 16.6107 119.193 17.4177 119.737 18.4484C120.282 19.4791 120.554 20.6557 120.554 21.9781C120.554 22.3281 120.544 22.6587 120.525 22.9699C120.505 23.2616 120.476 23.5144 120.437 23.7283H109.061V21.3363H118.658L116.703 22.0072C116.703 21.171 116.587 20.4612 116.353 19.8778C116.12 19.2944 115.78 18.8471 115.332 18.5359C114.885 18.2248 114.341 18.0692 113.699 18.0692C112.979 18.0692 112.357 18.2442 111.832 18.5943C111.326 18.9443 110.937 19.4694 110.665 20.1695C110.412 20.8501 110.286 21.7155 110.286 22.7657C110.286 23.7964 110.432 24.652 110.723 25.3327C111.015 26.0133 111.433 26.519 111.978 26.8496C112.522 27.1802 113.164 27.3455 113.903 27.3455C114.7 27.3455 115.352 27.1802 115.858 26.8496C116.383 26.4995 116.781 26.0231 117.054 25.4202L120.262 26.6454C119.971 27.4233 119.504 28.0845 118.862 28.629C118.24 29.1735 117.501 29.5916 116.645 29.8833C115.789 30.1556 114.875 30.2917 113.903 30.2917ZM123.832 30V15.4147H127.42L127.654 19.8778L127.187 19.4111C127.517 17.9914 128.15 16.9218 129.083 16.2023C130.016 15.4827 131.144 15.123 132.467 15.123C133.459 15.123 134.334 15.3272 135.092 15.7356C135.851 16.1245 136.444 16.7079 136.872 17.4858C137.319 18.2637 137.542 19.236 137.542 20.4029V30H133.517V21.5113C133.517 20.3251 133.284 19.4888 132.817 19.0027C132.35 18.5165 131.747 18.2734 131.008 18.2734C130.483 18.2734 129.978 18.4095 129.491 18.6818C129.005 18.9346 128.607 19.3527 128.295 19.9361C128.004 20.5195 127.858 21.278 127.858 22.2114V30H123.832Z" fill="#FCFCFC"/>
<defs>
<linearGradient id="paint0_linear_511_2612" x1="24.7495" y1="0.0255127" x2="19.1055" y2="16.5175" gradientUnits="userSpaceOnUse">
<stop stop-color="#AFA9A9"/>
<stop offset="1" stop-color="#D9D9D9"/>
</linearGradient>
<linearGradient id="paint1_linear_511_2612" x1="14.2592" y1="2.27032" x2="8.61849" y2="18.7582" gradientUnits="userSpaceOnUse">
<stop stop-color="#AFA9A9"/>
<stop offset="1" stop-color="#D9D9D9"/>
</linearGradient>
</defs>
</svg>
