<svg width="207" height="57" viewBox="0 0 207 57" fill="none" xmlns="http://www.w3.org/2000/svg">
<path d="M14.8831 13.1485L39.0853 23.2978L39.0157 4.88749C35.0368 0.550752 31.3783 -6.47494 14.8831 13.1485Z" fill="url(#paint0_linear_9_7)"/>
<path d="M0.0585815 16.3133L24.2608 26.4626L24.1911 8.05234C20.1997 3.73483 16.5538 -3.31009 0.0585815 16.3133Z" fill="url(#paint1_linear_9_7)"/>
<path d="M34.5356 0.751251C71.2872 12.7491 58.7075 8.95547 61.406 53.1305L37.8972 43.7841C36.9062 25.1472 41.2178 2.93271 34.5356 0.751251Z" fill="url(#paint2_linear_9_7)"/>
<path d="M19.6877 3.92718C56.4392 15.925 43.8826 12.1203 46.5811 56.2954L23.0723 46.949C22.0814 28.3121 26.3699 6.10864 19.6877 3.92718Z" fill="url(#paint3_linear_9_7)"/>
<path d="M82.7791 13.6494V35.0333C82.7791 36.1434 83.042 36.9468 83.5679 37.4434C84.0937 37.94 84.824 38.1883 85.7588 38.1883C86.46 38.1883 87.0734 38.0861 87.5993 37.8816C88.1251 37.6479 88.6071 37.3557 89.0453 37.0052L89.9217 40.9489C89.2206 41.4748 88.3588 41.8984 87.3363 42.2197C86.3139 42.541 85.2476 42.7017 84.1375 42.7017C81.9173 42.7017 80.1354 42.2051 78.7916 41.2119C77.4478 40.1894 76.7759 38.4658 76.7759 36.0412V15.3146L82.7791 13.6494ZM89.5711 20.3538V24.8234H72.9198V20.3538H89.5711ZM93.5135 42.2635V20.3538H98.8157L99.1224 24.7796C99.6482 23.2313 100.452 22.0336 101.532 21.1864C102.643 20.3392 104.001 19.9156 105.608 19.9156C106.104 19.9156 106.542 19.9594 106.922 20.0471C107.331 20.1347 107.667 20.2516 107.93 20.3976L107.229 25.4807C106.995 25.3638 106.659 25.2762 106.221 25.2178C105.812 25.1301 105.286 25.0863 104.644 25.0863C103.767 25.0863 102.935 25.3054 102.146 25.7436C101.386 26.1818 100.758 26.8391 100.262 27.7155C99.7943 28.5626 99.5606 29.6289 99.5606 30.9143V42.2635H93.5135ZM122.982 28.2413C122.982 27.0144 122.646 26.0503 121.975 25.3492C121.332 24.6189 120.441 24.2537 119.302 24.2537C118.191 24.2537 117.242 24.5313 116.453 25.0863C115.665 25.6414 115.095 26.5762 114.744 27.8907L109.661 26.3571C110.129 24.3998 111.195 22.8369 112.86 21.6684C114.525 20.4999 116.775 19.9156 119.608 19.9156C121.536 19.9156 123.202 20.2223 124.604 20.8358C126.006 21.4201 127.087 22.3111 127.846 23.5088C128.635 24.7065 129.03 26.1964 129.03 27.9784V36.8737C129.03 38.013 129.541 38.5827 130.563 38.5827C130.797 38.5827 131.031 38.5681 131.264 38.5389C131.527 38.5097 131.746 38.4658 131.922 38.4074L131.571 42.0882C131.22 42.2635 130.811 42.395 130.344 42.4826C129.877 42.5703 129.336 42.6141 128.723 42.6141C127.73 42.6141 126.824 42.4534 126.006 42.1321C125.217 41.7815 124.589 41.2557 124.122 40.5546C123.684 39.8242 123.464 38.904 123.464 37.7939V37.4434L124.297 37.2681C124.18 38.4658 123.742 39.4737 122.982 40.2916C122.223 41.1096 121.288 41.7231 120.178 42.1321C119.068 42.5118 117.899 42.7017 116.672 42.7017C114.569 42.7017 112.846 42.1905 111.502 41.168C110.187 40.1456 109.53 38.6557 109.53 36.6985C109.53 35.1502 110.012 33.8502 110.976 32.7985C111.94 31.7469 113.415 31.0165 115.402 30.6076L123.64 28.8548V32.4041L118.6 33.4558C117.607 33.6603 116.848 33.967 116.322 34.376C115.796 34.785 115.533 35.3839 115.533 36.1726C115.533 36.9322 115.796 37.5164 116.322 37.9254C116.877 38.3344 117.578 38.5389 118.425 38.5389C119.009 38.5389 119.579 38.4658 120.134 38.3198C120.689 38.1445 121.171 37.8816 121.58 37.531C122.018 37.1513 122.354 36.6985 122.588 36.1726C122.851 35.6176 122.982 34.9603 122.982 34.2007V28.2413ZM134.008 42.2635V38.4074L143.385 27.1458L145.752 24.6481L142.29 24.7357H134.052V20.3538H152.456V24.2099L143.166 35.3839L140.713 37.9692L144.569 37.8816H152.85V42.2635H134.008ZM167.221 42.7017C164.972 42.7017 163 42.2635 161.306 41.3871C159.64 40.4815 158.34 39.1816 157.406 37.4872C156.471 35.7636 156.003 33.7041 156.003 31.3087C156.003 28.9132 156.471 26.8683 157.406 25.1739C158.34 23.4504 159.626 22.1504 161.262 21.274C162.898 20.3684 164.782 19.9156 166.914 19.9156C169.076 19.9156 170.917 20.3684 172.436 21.274C173.984 22.1504 175.167 23.3627 175.985 24.911C176.803 26.4593 177.212 28.2267 177.212 30.2132C177.212 30.739 177.197 31.2356 177.168 31.703C177.139 32.1412 177.095 32.521 177.037 32.8423H159.947V29.2491H174.364L171.428 30.257C171.428 29.0008 171.253 27.9346 170.902 27.0582C170.551 26.1818 170.04 25.5099 169.368 25.0425C168.696 24.5751 167.879 24.3414 166.914 24.3414C165.834 24.3414 164.899 24.6043 164.11 25.1301C163.35 25.656 162.766 26.4447 162.357 27.4964C161.977 28.5188 161.788 29.8188 161.788 31.3963C161.788 32.9446 162.007 34.23 162.445 35.2524C162.883 36.2749 163.511 37.0344 164.329 37.531C165.147 38.0276 166.111 38.276 167.221 38.276C168.419 38.276 169.398 38.0276 170.157 37.531C170.946 37.0052 171.545 36.2895 171.954 35.3839L176.774 37.2243C176.336 38.3928 175.635 39.386 174.671 40.204C173.736 41.022 172.626 41.65 171.34 42.0882C170.055 42.4972 168.682 42.7017 167.221 42.7017ZM182.137 42.2635V20.3538H187.526L187.877 27.0582L187.176 26.3571C187.672 24.2245 188.622 22.6178 190.024 21.5369C191.426 20.4561 193.121 19.9156 195.107 19.9156C196.597 19.9156 197.912 20.2223 199.051 20.8358C200.19 21.4201 201.081 22.2965 201.724 23.465C202.396 24.6335 202.732 26.0942 202.732 27.8469V42.2635H196.685V29.5121C196.685 27.7301 196.334 26.4739 195.633 25.7436C194.932 25.0133 194.026 24.6481 192.916 24.6481C192.127 24.6481 191.368 24.8526 190.638 25.2616C189.907 25.6414 189.308 26.2694 188.841 27.1458C188.403 28.0222 188.184 29.1615 188.184 30.5637V42.2635H182.137Z" fill="white"/>
<defs>
<linearGradient id="paint0_linear_9_7" x1="34.9749" y1="0.035846" x2="26.999" y2="23.3419" gradientUnits="userSpaceOnUse">
<stop stop-color="#D6C3E3"/>
<stop offset="1" stop-color="#D9D9D9"/>
</linearGradient>
<linearGradient id="paint1_linear_9_7" x1="20.1504" y1="3.20808" x2="12.1791" y2="26.5083" gradientUnits="userSpaceOnUse">
<stop stop-color="#D6C3E3"/>
<stop offset="1" stop-color="#D9D9D9"/>
</linearGradient>
<linearGradient id="paint2_linear_9_7" x1="40.5528" y1="0.751251" x2="40.5528" y2="56.2954" gradientUnits="userSpaceOnUse">
<stop stop-color="#9E1CFA"/>
<stop offset="0.572115" stop-color="#AB14ED"/>
<stop offset="1" stop-color="#BD09DC"/>
</linearGradient>
<linearGradient id="paint3_linear_9_7" x1="40.5528" y1="0.751251" x2="40.5528" y2="56.2954" gradientUnits="userSpaceOnUse">
<stop stop-color="#9E1CFA"/>
<stop offset="0.572115" stop-color="#AB14ED"/>
<stop offset="1" stop-color="#BD09DC"/>
</linearGradient>
</defs>
</svg>
