<svg width="100" height="100" viewBox="0 0 100 100" fill="none" xmlns="http://www.w3.org/2000/svg">
<path d="M50 41.6666C59.2048 41.6666 66.6667 34.2047 66.6667 24.9999C66.6667 15.7952 59.2048 8.33325 50 8.33325C40.7953 8.33325 33.3334 15.7952 33.3334 24.9999C33.3334 34.2047 40.7953 41.6666 50 41.6666Z" stroke="#B0A4A4" stroke-width="3"/>
<path d="M83.325 74.9998C83.3306 74.3165 83.3334 73.6221 83.3334 72.9165C83.3334 62.5623 68.4084 54.1665 50 54.1665C31.5917 54.1665 16.6667 62.5623 16.6667 72.9165C16.6667 83.2707 16.6667 91.6665 50 91.6665C59.2959 91.6665 66 91.0123 70.8334 89.8457" stroke="#B0A4A4" stroke-width="3" stroke-linecap="round"/>
</svg>
