<svg width="100" height="100" viewBox="0 0 100 100" fill="none" xmlns="http://www.w3.org/2000/svg">
<path d="M37.5 45.8334C42.1023 45.8334 45.8333 42.1025 45.8333 37.5001C45.8333 32.8977 42.1023 29.1667 37.5 29.1667C32.8976 29.1667 29.1666 32.8977 29.1666 37.5001C29.1666 42.1025 32.8976 45.8334 37.5 45.8334Z" stroke="#ABABAB" stroke-width="2"/>
<path d="M54.1666 62.5001C54.1666 67.1042 54.1666 70.8334 37.5 70.8334C20.8333 70.8334 20.8333 67.1042 20.8333 62.5001C20.8333 57.8959 28.2916 54.1667 37.5 54.1667C46.7083 54.1667 54.1666 57.8959 54.1666 62.5001Z" stroke="#ABABAB" stroke-width="2"/>
<path d="M91.6666 50.0001C91.6666 65.7126 91.6666 73.5709 86.7833 78.4501C81.9 83.3292 74.0458 83.3334 58.3333 83.3334H41.6666C25.9541 83.3334 18.0958 83.3334 13.2166 78.4501C8.33748 73.5667 8.33331 65.7126 8.33331 50.0001C8.33331 34.2876 8.33331 26.4292 13.2166 21.5501C18.1 16.6709 25.9541 16.6667 41.6666 16.6667H58.3333C74.0458 16.6667 81.9041 16.6667 86.7833 21.5501C88.7416 23.5084 89.9125 25.9417 90.6166 29.1667M79.1666 50.0001H62.5M79.1666 37.5001H58.3333M79.1666 62.5001H66.6666" stroke="#ABABAB" stroke-width="2" stroke-linecap="round"/>
</svg>
