<svg width="141" height="140" viewBox="0 0 141 140" fill="none" xmlns="http://www.w3.org/2000/svg">
<circle cx="70.5" cy="70" r="64.6154" stroke="#430B68" stroke-width="10.7692"/>
<circle cx="70.775" cy="70.275" r="53.275" fill="#B348F9"/>
<path d="M87.7266 121L50.7266 95L58.2266 90L59.7266 81L68.7266 71.5L59.7266 61L58.2266 47.5L85.7266 49L90.7266 45L124.227 70.5C122.227 95.5 113.227 110.5 87.7266 121Z" fill="#651D93"/>
<path d="M55.5 50H50.5V45H90.5V50H85.5V55C85.5 59.0375 83.46 62.2875 80.89 64.9425C79.1325 66.7575 76.995 68.43 74.8275 70C76.995 71.57 79.1325 73.2425 80.89 75.0575C83.46 77.7125 85.5 80.9625 85.5 85V90H90.5V95H50.5V90H55.5V85C55.5 80.9625 57.54 77.7125 60.11 75.0575C61.8675 73.2425 64.005 71.57 66.1725 70C64.005 68.43 61.8675 66.7575 60.11 64.9425C57.54 62.2875 55.5 59.0375 55.5 55V50ZM60.5 50V55C60.5 56.7125 61.15 58.3375 62.4275 60H78.5725C79.8475 58.3375 80.5 56.7125 80.5 55V50H60.5ZM70.5 73.055C67.8875 74.9 65.52 76.6575 63.7025 78.535C63.2507 78.9994 62.8251 79.4884 62.4275 80H78.5725C78.1749 79.4884 77.7493 78.9994 77.2975 78.535C75.48 76.6575 73.1125 74.9 70.5 73.055Z" fill="#F4F4F4" fill-opacity="0.956863"/>
</svg>
