<svg width="29" height="24" viewBox="0 0 29 24" fill="none" xmlns="http://www.w3.org/2000/svg">
<path fill-rule="evenodd" clip-rule="evenodd" d="M26.1334 6.67157C26.0579 6.66713 25.9774 6.66535 25.8921 6.66624H22.5254C19.7681 6.66624 17.4094 8.8369 17.4094 11.6662C17.4094 14.4956 19.7694 16.6662 22.5254 16.6662H25.8921C25.9774 16.6671 26.0583 16.6653 26.1348 16.6609C26.7015 16.6267 27.2364 16.3877 27.6399 15.9883C28.0435 15.589 28.288 15.0566 28.3281 14.4902C28.3334 14.4102 28.3334 14.3236 28.3334 14.2436V9.08891C28.3334 9.00891 28.3334 8.92224 28.3281 8.84224C28.288 8.27592 28.0435 7.74348 27.6399 7.34413C27.2364 6.94477 26.7001 6.70574 26.1334 6.67157ZM22.2308 12.9996C22.9401 12.9996 23.5148 12.4022 23.5148 11.6662C23.5148 10.9302 22.9401 10.3329 22.2308 10.3329C21.5201 10.3329 20.9454 10.9302 20.9454 11.6662C20.9454 12.4022 21.5201 12.9996 22.2308 12.9996Z" fill="white"/>
<path fill-rule="evenodd" clip-rule="evenodd" d="M25.8907 18.6667C25.9368 18.6648 25.9827 18.6739 26.0247 18.6931C26.0666 18.7123 26.1034 18.7411 26.1321 18.7772C26.1609 18.8133 26.1806 18.8557 26.1899 18.9009C26.1991 18.9461 26.1976 18.9928 26.1854 19.0373C25.9187 19.9867 25.4934 20.7973 24.8121 21.4773C23.8134 22.4773 22.5481 22.9187 20.9854 23.1293C19.4654 23.3333 17.5254 23.3333 15.0747 23.3333H12.2587C9.80808 23.3333 7.86675 23.3333 6.34808 23.1293C4.78542 22.9187 3.52008 22.476 2.52141 21.4787C1.52408 20.48 1.08141 19.2147 0.870748 17.652C0.666748 16.132 0.666748 14.192 0.666748 11.7413V11.592C0.666748 9.14133 0.666748 7.2 0.870748 5.68C1.08141 4.11733 1.52408 2.852 2.52141 1.85333C3.52008 0.856 4.78542 0.413333 6.34808 0.202667C7.86808 -5.96046e-08 9.80808 0 12.2587 0H15.0747C17.5254 0 19.4667 1.58946e-07 20.9854 0.204C22.5481 0.414667 23.8134 0.857333 24.8121 1.85467C25.4934 2.53733 25.9187 3.34667 26.1854 4.296C26.1976 4.34049 26.1991 4.38723 26.1899 4.43243C26.1806 4.47762 26.1609 4.52 26.1321 4.55611C26.1034 4.59222 26.0666 4.62105 26.0247 4.64026C25.9827 4.65947 25.9368 4.66852 25.8907 4.66667H22.5254C18.7427 4.66667 15.4094 7.65333 15.4094 11.6667C15.4094 15.68 18.7427 18.6667 22.5254 18.6667H25.8907ZM7.33342 16.6667C7.0682 16.6667 6.81384 16.5613 6.62631 16.3738C6.43877 16.1862 6.33342 15.9319 6.33342 15.6667V7.66667C6.33342 7.40145 6.43877 7.1471 6.62631 6.95956C6.81384 6.77202 7.0682 6.66667 7.33342 6.66667C7.59863 6.66667 7.85299 6.77202 8.04052 6.95956C8.22806 7.1471 8.33342 7.40145 8.33342 7.66667V15.6667C8.33342 15.9319 8.22806 16.1862 8.04052 16.3738C7.85299 16.5613 7.59863 16.6667 7.33342 16.6667Z" fill="white"/>
</svg>
